<svg id="Layer_1" data-name="Layer 1" xmlns="http://www.w3.org/2000/svg" viewBox="0 0 754.62 250.03"><defs><style>.cls-1{fill:#15345f;}.cls-2{fill:#e11922;}</style></defs><title>digilearning</title><path class="cls-1" d="M22.88,100c30.62,3.44,59.24-1.54,88,4.35,35.33,7.24,64.33,71.68,62,125C169.9,296.65,141.5,343,100.22,348.77c-24.53,3.43-49-2.48-73.5,1.13-1.54.23-3.3.37-3.9-2.15S24,343.7,25,342q2.85-4.77,5.78-9.44C40,317.9,47.57,298.67,58.9,290c11.13-8.56,24.8-2,37.35-2.55,21-.86,38.41-27,38.81-58.9.45-36.4-14.67-63.31-37-65-10.62-.78-21.28-.27-31.92.06-4.26.14-7.47-1.92-10.5-7C45,138.74,33.46,122.28,22.88,100Z" transform="translate(-22.69 -99.99)"/><path class="cls-2" d="M60.21,285.13C51.82,272.3,44.4,261.44,37.35,250c-4.66-7.56-13.12-13.8-12.79-23.18.29-8,7.82-15.4,12.34-22.75,7.44-12.07,15-23.89,23.31-37Z" transform="translate(-22.69 -99.99)"/><path class="cls-1" d="M205.92,200.72c0-20.86.05-41.72,0-62.58,0-10,.79-20.2,5.52-20.34,10.9-.32,22-5.18,32.66,4.33,11.91,10.61,17.79,31.6,17.84,62.82.12,86.18-7.15,102.91-42.61,103.51-10.29.17-14.55-7-13.54-32.7C206.5,237.57,205.91,219.08,205.92,200.72Zm12.67-1c0,12.48-.08,25,0,37.43.07,8.78,1.16,16.29,5,19.63,12,10.38,25.05-10.6,25.66-41.62.2-10,.27-20,0-29.93-.59-25.88-8.27-37.55-22.19-37.94-12.16-.35-7.8,20.52-8.54,35C218.32,188,218.56,193.86,218.59,199.68Z" transform="translate(-22.69 -99.99)"/><path class="cls-1" d="M332.6,290.14c-1.75-.67-3-1.87-4.24-1.53-29.27,8.41-32.78-44.47-29.23-91.79,1.68-22.48,13-39.59,23.84-39.57,11.25,0,22,17.77,23.8,42.71a618.7,618.7,0,0,1-.18,92.24c-2.67,33-20.2,51.44-31.95,36-3.41-4.48-5.42-10.35-4.45-20,1.08-10.65,4-7.67,7.26-6.37C322.86,304,328.41,304.33,332.6,290.14ZM335,222.69c-.13-23.28-4.43-35.68-12.35-34.47-9.29,1.41-11.94,16.55-11.9,36.24,0,19.53,2.35,34.94,12,35.36C331.19,260.19,335.1,248.27,335,222.69Z" transform="translate(-22.69 -99.99)"/><path class="cls-1" d="M763.27,289.18c-3.91,0-6.27-.28-8.62,0-12.68,1.75-21.42-10.75-25.31-36.4-4.62-30.47-1.85-65.2,6.44-80.72,10.08-18.87,22.44-19.82,32.56-2.25,5.62,9.76,9,22.48,8.91,40-.13,24.26-.4,48.56,0,72.77.81,44.13-21.92,57.45-33.67,44.78-3.89-4.2-4.4-12.73-3.34-21.24,1.11-8.86,3.9-6.16,6.75-4.63C752.53,304.5,757.91,304,763.27,289.18Zm1.55-64.64c0-24.34-4.43-37.82-12.5-36.46-9,1.52-12,16.18-12.19,35.71-.19,23.21,4.64,36.5,13,35.88C762.53,259,765.28,244.79,764.82,224.54Z" transform="translate(-22.69 -99.99)"/><path class="cls-1" d="M449.46,243.29c4.35,19.72,10.18,20.33,16.83,13.34,5.11-5.36,12-12.66,14.21,2.4,2.05,13.86-5.23,21.9-10.2,26.37-15.26,13.77-35.5,5.13-34.76-55.86.71-57.8,13.71-85.18,33.91-67,7.79,7,12.49,19.75,12,41.47-.53,22.1-6,32.89-14.25,36.17C461.62,242.37,455.89,242.25,449.46,243.29Zm-.27-32.2c3.25.44,6,.95,8.69,1.14,3.83.27,7.74-.25,10.21-8.53,1.15-3.85-.2-7.75-1.61-10.51-3.71-7.27-7.49-6.69-11.46-1.12C452.33,195.84,449.64,199.31,449.19,211.09Z" transform="translate(-22.69 -99.99)"/><path class="cls-1" d="M539.1,240c0,14.2,1.64,30-.4,42.21-2.72,16.27-9.12-1.85-14.6,3.07-9.3,8.36-20.19,10.34-27.46-12.43-7.1-22.22-9-48.15-5.31-75.55,3.36-25.23,16-43.71,26.86-39.37,13.56,5.44,21,25.5,21.08,57,0,8.36,0,16.71,0,25.07Zm-12.29-14.61c.86-20.64-2-35-11.12-36.79-7.74-1.57-13.3,13.93-13.42,35.69-.13,22.61,4.84,36.61,13.09,35.86C524.62,259.26,527.69,245.71,526.81,225.35Z" transform="translate(-22.69 -99.99)"/><path class="cls-1" d="M632.28,241.71c0,9.2.11,18.4,0,27.57-.13,8.49,1.38,19.7-5,18.65-5.12-.83-7.35-7.34-7.32-19.37,0-15-.18-30.1,0-45.12.29-19.66-2.93-34.24-11.28-34.36-8.1-.11-12,12.68-11.54,33.36.41,16.65.13,33.41,0,50.12,0,7.06,1,15.77-4.19,15.41-4.22-.3-8-2.43-8.05-14.25-.16-25-.76-50.37.66-75,1.47-25.37,13-42.61,24-40.62,13.24,2.37,21.7,21.18,22.59,51C632.54,219.94,632.27,230.85,632.28,241.71Z" transform="translate(-22.69 -99.99)"/><path class="cls-1" d="M717.33,239.44c0,10,.25,20.12-.08,30.1-.24,7,2.06,18-3.93,18.38-5.08.35-8-6-8.33-17.4-.46-15.82-.45-31.8-.12-47.65.41-19.93-2.59-33.77-11.22-33.87-8.07-.09-11.16,14.12-11.39,31.95-.22,17.55,0,35.13-.11,52.69,0,6.18,1,14.05-3.53,14.25-3.73.17-6.93-.72-7.66-11.86-1.9-29.14-2.76-58.4,1.21-86.79,3-21.22,14.48-34.31,24.86-30.23,11.92,4.67,19.31,20.89,20.13,45.31.39,11.64.06,23.41.06,35.12Z" transform="translate(-22.69 -99.99)"/><path class="cls-2" d="M400,183.14c0,16.67.16,33.35,0,50-.21,16.88,2.93,24.51,9.85,23.93a68.09,68.09,0,0,1,12.36.34c5.32.53,5.44,10,5.63,19.59.22,11.43-2.84,10.58-6.08,11.07-29.69,4.5-34.32-5.41-35-77-.23-23.32-.06-46.67.1-70,.08-12.28.87-24.14,7.64-24,7.35.18,5.34,13.38,5.37,23.56q0,21.24,0,42.5Z" transform="translate(-22.69 -99.99)"/><path class="cls-1" d="M551.6,235.81c0-10.8-.27-21.66.06-32.41.8-26,7.4-41,18-40.94,2.65,0,6.76-4.24,6.92,8.3.12,9,.82,19.59-4.57,21.24-7.4,2.27-8.18,14.37-8,28.88q.25,24.93,0,49.88c-.07,7.37,1.56,17.51-4.35,17.28-5-.2-7.86-5-8-17.31C551.47,259.1,551.59,247.45,551.6,235.81Z" transform="translate(-22.69 -99.99)"/><path class="cls-1" d="M286.78,229.54c0,14.23.09,28.46,0,42.67-.06,6.78,1.34,15.77-3.93,15.79-4.39,0-8.09-3.6-8.23-14.32-.43-32.58-.36-65.23-.1-97.83.09-10,3.44-13.51,7.31-13.75,5.28-.33,5,8.82,5,17.24C286.81,196.07,286.78,212.81,286.78,229.54Z" transform="translate(-22.69 -99.99)"/><path class="cls-1" d="M373.11,227.48q0,22.52,0,45c0,7.88-.12,15.54-4.64,15.43-3.67-.09-7.28-1.61-7.34-12.71q-.25-50,0-100.06c.05-11.15,3.44-13,7.19-13,4.36,0,4.83,7.09,4.82,15.25Q373.09,202.46,373.11,227.48Z" transform="translate(-22.69 -99.99)"/><path class="cls-1" d="M657.28,225.3c0,15.78.07,31.56,0,47.33,0,6.85,1.13,15.58-4,15.48-3.92-.06-7.69-3.15-7.83-12.09-.53-33.95-.59-68-.1-101.95.12-8.69,4-12.19,7.88-12,5,.28,4.06,8.83,4.11,15.86C657.35,193.75,657.28,209.52,657.28,225.3Z" transform="translate(-22.69 -99.99)"/><path class="cls-1" d="M373,128c-.13,15.65-3,21.42-7.72,22.22-3.81.64-4.21-5.59-4.39-13-.31-13.16,2.8-17.9,7.41-18.62C371.85,118,372.89,124,373,128Z" transform="translate(-22.69 -99.99)"/><path class="cls-1" d="M657.2,133.19c.47,13.67-3.6,16.2-7.82,16.93-3.27.56-4.74-4.25-4.63-12.52.16-12.46,3.28-17.49,7.73-18.87S657.41,124.68,657.2,133.19Z" transform="translate(-22.69 -99.99)"/><path class="cls-1" d="M274.23,138.21c.25-14.69,4-18.7,8.21-19.57,4.48-.93,4.39,7.52,4.3,15.27-.17,13.52-4.22,15.91-8.41,16C275.06,149.91,273.65,144.29,274.23,138.21Z" transform="translate(-22.69 -99.99)"/></svg>