<svg id="Layer_1" data-name="Layer 1" xmlns="http://www.w3.org/2000/svg" viewBox="0 0 2440.39 267.11"><defs><style>.cls-1{fill:#15345f;}.cls-2{fill:#e11922;}.cls-3{fill:#fff;}</style></defs><title>FOR FOOTER</title><path class="cls-1" d="M-1672.95,103.15c43.56,3.4,84.26-1.52,125.14,4.31,50.24,7.15,91.49,70.84,88.16,123.55-4.19,66.51-44.58,112.33-103.3,118-34.89,3.38-69.72-2.46-104.53,1.11-2.2.22-4.7.37-5.55-2.12s1.65-4,3.06-5.65q4.07-4.71,8.22-9.32c13.08-14.54,23.93-33.55,40-42.15,15.83-8.46,35.27-2,53.11-2.52,29.81-.85,54.64-26.71,55.21-58.22.64-36-20.86-62.57-52.67-64.19-15.11-.77-30.27-.27-45.4.06-6,.13-10.63-1.91-14.93-6.93C-1641.49,141.45-1657.9,125.19-1672.95,103.15Z" transform="translate(1673.22 -91.44)"/><path class="cls-2" d="M-1619.85,286.13c-11.93-12.68-22.48-23.41-32.52-34.74-6.61-7.47-18.66-13.64-18.18-22.91.4-7.87,11.12-15.23,17.55-22.49,10.57-11.93,21.37-23.61,33.15-36.57Z" transform="translate(1673.22 -91.44)"/><path class="cls-1" d="M-1435.24,193.24c0-12.35,0-24.7,0-37.05,0-5.93.66-12,4.6-12.05,9.09-.19,18.34-3.06,27.23,2.56,9.93,6.29,14.83,18.72,14.87,37.2.11,51-6,60.93-35.51,61.28-8.59.1-12.14-4.16-11.29-19.36C-1434.76,215.05-1435.25,204.1-1435.24,193.24Zm10.56-.62c0,7.39-.06,14.78,0,22.16.07,5.2,1,9.64,4.19,11.62,10,6.15,20.88-6.27,21.39-24.64.17-5.9.23-11.83,0-17.72-.5-15.32-6.9-22.23-18.5-22.46-10.14-.21-6.5,12.14-7.12,20.71C-1424.91,185.68-1424.7,189.18-1424.68,192.62Z" transform="translate(1673.22 -91.44)"/><path class="cls-1" d="M-1329.63,246.17c-1.46-.39-2.53-1.1-3.54-.9-24.4,5-27.32-26.33-24.37-54.35,1.4-13.31,10.81-23.43,19.88-23.42,9.37,0,18.38,10.52,19.84,25.29a260.26,260.26,0,0,1-.16,54.61c-2.22,19.53-16.83,30.45-26.63,21.3-2.84-2.65-4.52-6.12-3.71-11.83.9-6.31,3.36-4.54,6-3.77C-1337.76,254.38-1333.13,254.57-1329.63,246.17Zm2-39.93c-.11-13.78-3.69-21.12-10.3-20.41-7.74.84-10,9.81-9.91,21.46s2,20.68,10,20.93C-1330.81,228.44-1327.55,221.39-1327.67,206.24Z" transform="translate(1673.22 -91.44)"/><path class="cls-1" d="M-970.61,245.61c-3.26,0-5.23-.17-7.19,0-10.57,1-17.85-6.37-21.1-21.55-3.85-18-1.54-38.6,5.37-47.79,8.4-11.17,18.71-11.74,27.14-1.33,4.69,5.78,7.51,13.31,7.43,23.7-.11,14.36-.33,28.75,0,43.08.67,26.13-18.28,34-28.07,26.51-3.24-2.48-3.67-7.54-2.79-12.57.92-5.25,3.25-3.65,5.63-2.74C-979.57,254.68-975.08,254.38-970.61,245.61Zm1.29-38.27c0-14.41-3.7-22.4-10.42-21.59-7.5.9-10,9.58-10.16,21.14-.16,13.74,3.87,21.62,10.84,21.25C-971.23,227.72-968.94,219.33-969.32,207.34Z" transform="translate(1673.22 -91.44)"/><path class="cls-1" d="M-1232.21,218.44c3.62,11.67,8.48,12,14,7.9,4.26-3.17,10-7.5,11.85,1.42,1.71,8.2-4.36,13-8.5,15.61-12.72,8.15-29.59,3-29-33.07.59-34.22,11.43-50.43,28.27-39.68,6.49,4.15,10.41,11.69,10,24.55-.44,13.09-5,19.47-11.87,21.41C-1222.08,217.9-1226.85,217.82-1232.21,218.44Zm-.23-19.07c2.71.27,5,.57,7.24.68,3.2.16,6.46-.15,8.51-5.05,1-2.28-.16-4.59-1.34-6.22-3.09-4.3-6.24-4-9.55-.67C-1229.82,190.35-1232.07,192.4-1232.44,199.37Z" transform="translate(1673.22 -91.44)"/><path class="cls-1" d="M-1157.49,216.47c0,8.41,1.37,17.77-.33,25-2.27,9.63-7.6-1.1-12.17,1.82-7.75,4.94-16.84,6.12-22.9-7.36-5.91-13.16-7.47-28.51-4.42-44.73,2.8-14.94,13.36-25.88,22.39-23.31,11.3,3.22,17.5,15.1,17.57,33.74,0,4.95,0,9.9,0,14.85Zm-10.24-8.65c.72-12.22-1.7-20.7-9.27-21.79-6.46-.92-11.09,8.25-11.19,21.14-.11,13.38,4,21.67,10.91,21.23C-1169.56,227.9-1167,219.87-1167.73,207.82Z" transform="translate(1673.22 -91.44)"/><path class="cls-1" d="M-1079.81,217.51c0,5.44.09,10.88,0,16.32-.1,5,1.15,11.66-4.2,11-4.27-.49-6.12-4.35-6.1-11.47,0-8.9-.15-17.82,0-26.71.25-11.64-2.44-20.28-9.4-20.35-6.75-.06-10,7.51-9.62,19.75.34,9.86.11,19.79,0,29.68,0,4.18.81,9.34-3.49,9.12-3.52-.17-6.65-1.44-6.71-8.44-.13-14.8-.64-29.81.55-44.37,1.22-15,10.81-25.23,20-24.05,11,1.4,18.09,12.54,18.83,30.19C-1079.59,204.62-1079.82,211.08-1079.81,217.51Z" transform="translate(1673.22 -91.44)"/><path class="cls-1" d="M-1008.91,216.16c0,5.94.21,11.91-.07,17.82-.19,4.17,1.72,10.64-3.28,10.88-4.23.21-6.66-3.56-6.93-10.3-.39-9.36-.38-18.82-.11-28.21.34-11.8-2.15-20-9.35-20-6.72-.06-9.3,8.36-9.49,18.91-.19,10.39,0,20.8-.1,31.2,0,3.66.79,8.32-2.94,8.44-3.11.09-5.78-.43-6.38-7-1.59-17.25-2.31-34.58,1-51.38,2.48-12.56,12.08-20.31,20.73-17.9,9.93,2.77,16.1,12.37,16.78,26.83.32,6.89,0,13.86,0,20.79Z" transform="translate(1673.22 -91.44)"/><path class="cls-2" d="M-1273.49,182.83c0,9.87.13,19.74,0,29.6s2.45,14.52,8.22,14.17a77,77,0,0,1,10.3.21c4.44.31,4.54,5.9,4.69,11.59.19,6.77-2.36,6.27-5.06,6.56-24.75,2.66-28.61-3.21-29.2-45.6-.2-13.81-.06-27.64.08-41.45.07-7.27.72-14.29,6.37-14.2,6.13.11,4.45,7.93,4.47,13.95,0,8.39,0,16.78,0,25.17Z" transform="translate(1673.22 -91.44)"/><path class="cls-1" d="M-1147.07,214c0-6.4-.23-12.82,0-19.19.67-15.39,6.17-24.27,15-24.24,2.2,0,5.63-2.51,5.77,4.92.09,5.31.68,11.59-3.82,12.57-6.16,1.35-6.82,8.51-6.7,17.1q.23,14.76,0,29.53c-.06,4.37,1.3,10.37-3.62,10.23-4.17-.11-6.56-3-6.7-10.25C-1147.18,227.8-1147.08,220.9-1147.07,214Z" transform="translate(1673.22 -91.44)"/><path class="cls-1" d="M-1367.83,210.3c0,8.42.07,16.85,0,25.26-.05,4,1.11,9.33-3.28,9.35-3.66,0-6.74-2.13-6.86-8.48-.36-19.29-.31-38.62-.08-57.92.07-5.93,2.86-8,6.09-8.14,4.4-.2,4.13,5.22,4.15,10.21C-1367.81,190.49-1367.83,200.39-1367.83,210.3Z" transform="translate(1673.22 -91.44)"/><path class="cls-1" d="M-1295.87,209.08q0,13.32,0,26.66c0,4.66-.09,9.2-3.86,9.13-3.06-.05-6.07-1-6.12-7.52q-.21-29.62,0-59.24c0-6.6,2.87-7.7,6-7.69,3.63,0,4,4.2,4,9C-1295.87,189.33-1295.85,199.2-1295.87,209.08Z" transform="translate(1673.22 -91.44)"/><path class="cls-1" d="M-1059,207.79c0,9.34.06,18.68,0,28,0,4.06.94,9.22-3.38,9.17-3.26,0-6.41-1.87-6.53-7.16-.44-20.1-.48-40.26-.08-60.36.1-5.15,3.3-7.22,6.57-7.08,4.13.16,3.39,5.22,3.42,9.39C-1058.91,189.11-1059,198.45-1059,207.79Z" transform="translate(1673.22 -91.44)"/><path class="cls-1" d="M-1295.95,150.16c-.12,9.27-2.52,12.68-6.44,13.15-3.17.38-3.51-3.31-3.66-7.71-.26-7.8,2.33-10.6,6.18-11C-1296.92,144.24-1296,147.82-1295.95,150.16Z" transform="translate(1673.22 -91.44)"/><path class="cls-1" d="M-1059,153.25c.39,8.1-3,9.59-6.53,10-2.72.33-4-2.52-3.86-7.41.14-7.38,2.74-10.36,6.45-11.18S-1058.86,148.22-1059,153.25Z" transform="translate(1673.22 -91.44)"/><path class="cls-1" d="M-1378.29,156.23c.2-8.7,3.31-11.08,6.84-11.59,3.74-.55,3.66,4.45,3.58,9-.14,8-3.51,9.42-7,9.45C-1377.6,163.16-1378.78,159.83-1378.29,156.23Z" transform="translate(1673.22 -91.44)"/><path class="cls-2" d="M-1414.9,286.33c.26-.55.52-1.15.8-1.82s.6-1.23.82-1.23a.46.46,0,0,1,.47.32,11.24,11.24,0,0,1,.18,1.94l.36,9.79,0,1.25q0,1.26-.57,1.26c-.26,0-.46-.35-.62-1a35,35,0,0,0-2.67-7.38q-1.94-4.07-4.87-4.07a4.35,4.35,0,0,0-3.65,2.18,17.4,17.4,0,0,0-2.3,6,43.41,43.41,0,0,0-.82,9.09q0,9.06,2.3,14.41t5.72,5.35q3.71,0,6.81-7.78c.25-.63.49-.94.72-.94.38,0,.57.34.57,1q0,2.07-2.85,6.59t-7.14,4.52c-3.78,0-6.78-2-9-6.09s-3.29-9-3.29-15a33.31,33.31,0,0,1,3.32-15.35q3.32-6.51,8.39-6.5Q-1418.59,282.85-1414.9,286.33Z" transform="translate(1673.22 -91.44)"/><path class="cls-2" d="M-1392.22,310.69A20.88,20.88,0,0,1-1394.7,321c-1.66,3-3.75,4.48-6.3,4.48q-3.51,0-5.9-3.76t-2.39-10q0-6.36,2.53-10.3t6.14-3.93q3.67,0,6,3.71A17.55,17.55,0,0,1-1392.22,310.69Zm-5,2.15a40.93,40.93,0,0,0-1-9.31q-1-4.15-2.84-4.16c-1.08,0-1.92,1-2.51,2.91a29.19,29.19,0,0,0-.89,8.15,36.19,36.19,0,0,0,1,9.37q1,3.66,2.76,3.66c1.14,0,2-1,2.58-2.92A27.75,27.75,0,0,0-1397.22,312.84Z" transform="translate(1673.22 -91.44)"/><path class="cls-2" d="M-1383.14,302.19a13.77,13.77,0,0,1,2.63-3.65,4.07,4.07,0,0,1,2.71-1.21,3.86,3.86,0,0,1,2.06.69,8.37,8.37,0,0,1,2.38,3.23,11.22,11.22,0,0,1,2.67-3,4.79,4.79,0,0,1,2.82-1,3.84,3.84,0,0,1,3.64,2.33,16.76,16.76,0,0,1,1.13,7l-.09,10.61a25.94,25.94,0,0,0,.26,5.16,1.76,1.76,0,0,0,1.36,1,.81.81,0,0,1,.63.85c0,.65-.25,1-.74,1a1.86,1.86,0,0,1-.36,0,21.36,21.36,0,0,0-3.31-.24,20.37,20.37,0,0,0-2.35.17l-1,.11a.79.79,0,0,1-.9-.88c0-.52.2-.82.59-.91a2.07,2.07,0,0,0,1.27-.63,9.68,9.68,0,0,0,.36-2.9q.13-2.54.13-8.52c0-3.67-.06-6.18-.16-7.54a8.19,8.19,0,0,0-.75-3.13,1.67,1.67,0,0,0-1.44-1.08,2.18,2.18,0,0,0-1.59,1,13.69,13.69,0,0,0-1.65,3.09,129.24,129.24,0,0,0-.56,14,19.08,19.08,0,0,0,.32,4.69,1.8,1.8,0,0,0,1.49,1,.75.75,0,0,1,.68.82c0,.65-.29,1-.86,1-.14,0-.6,0-1.4-.14-1.09-.12-1.87-.17-2.33-.17a19.32,19.32,0,0,0-2.79.24,3.7,3.7,0,0,1-.63.07c-.53,0-.8-.3-.8-.91a.81.81,0,0,1,.78-.91c.69-.08,1.12-.75,1.3-2s.28-5.61.28-13.08a28.69,28.69,0,0,0-.47-6.36c-.32-1.16-.83-1.74-1.54-1.74q-1.85,0-2.92,3.38t-1.06,13.1a26.23,26.23,0,0,0,.33,5.58,1.42,1.42,0,0,0,1.26,1.11c.46,0,.69.31.69.82,0,.67-.25,1-.75,1a2.09,2.09,0,0,1-.5-.1,16.87,16.87,0,0,0-3.22-.21,15.58,15.58,0,0,0-3.13.24,4.11,4.11,0,0,1-.65.07c-.4,0-.6-.3-.6-.91s.22-.87.67-.91c.72-.06,1.17-.28,1.34-.66a12.6,12.6,0,0,0,.38-3.15q.12-2.59.12-9.75c0-3.73,0-6.06-.08-7a4.24,4.24,0,0,0-.59-2.16,1.7,1.7,0,0,0-1.42-.79c-.5,0-.75-.3-.75-.85a.76.76,0,0,1,.75-.87c.63-.07,1.58-.21,2.84-.43a19.18,19.18,0,0,1,3.25-.33,14.15,14.15,0,0,1,.22,3C-1383.16,300.7-1383.15,301.32-1383.14,302.19Z" transform="translate(1673.22 -91.44)"/><path class="cls-2" d="M-1353.18,301.41a9.33,9.33,0,0,1,2.08-2.89,3.48,3.48,0,0,1,2.33-1q2.54,0,4.83,3.88a19.34,19.34,0,0,1,2.28,9.92,20.11,20.11,0,0,1-2.27,9.83q-2.28,4.15-5.37,4.16a4.57,4.57,0,0,1-2.14-.55,7.27,7.27,0,0,1-2-1.65q0,12.53.4,14.6c.26,1.39,1,2.13,2.15,2.21.42,0,.63.3.63.85a.75.75,0,0,1-.85.85q-.48,0-1.5-.09a35.61,35.61,0,0,0-3.69-.23,18,18,0,0,0-2.59.22c-.49.06-.81.1-.94.1-.63,0-.94-.28-.94-.82s.34-.8,1-.91c1.1-.19,1.76-1.35,2-3.5s.32-9.46.32-22l-.11-10.23a11,11,0,0,0-.41-3.85,1.73,1.73,0,0,0-1.31-1,.78.78,0,0,1-.68-.88c0-.6.26-.91.77-.91q3.2,0,6-.25l0,3.16C-1353.14,300.59-1353.16,300.9-1353.18,301.41Zm6.42,11a31.27,31.27,0,0,0-1-8.84q-1-3.15-2.52-3.15c-1.06,0-1.86,1.12-2.4,3.35a47.1,47.1,0,0,0-.8,10.08q0,5.33.78,7.32a2.62,2.62,0,0,0,2.47,2q1.73,0,2.58-2.7A28,28,0,0,0-1346.76,312.46Z" transform="translate(1673.22 -91.44)"/><path class="cls-2" d="M-1333.3,297.93q.09,3.22.09,8.81,0,8.47.09,10.84a8.59,8.59,0,0,0,.72,3.56c.41.79.89,1.19,1.42,1.19a2.61,2.61,0,0,0,1.91-1.23,8.11,8.11,0,0,0,1.43-3.19,32.33,32.33,0,0,0,.46-6.46l0-6.93a23.17,23.17,0,0,0-.17-3.64,1.1,1.1,0,0,0-1.16-.94c-.73-.07-1.09-.39-1.09-1,0-.35.09-.58.26-.67a4.07,4.07,0,0,1,1.39-.14,45.66,45.66,0,0,0,4.68-.22q.08,1.23.07,13.39,0,9.78.11,10.68a1.21,1.21,0,0,0,1.18,1.05c.42.08.63.39.63.91s-.24.91-.72.91l-.45,0a10.22,10.22,0,0,0-1.2-.07c-1.6,0-2.49,0-2.66,0l-.49,0c-.22,0-.37-.07-.42-.21a4.55,4.55,0,0,1-.08-1.2q0-1.64.12-3.3a13.16,13.16,0,0,1-2.63,3.95,4.18,4.18,0,0,1-2.9,1.32q-4.62,0-4.62-9v-9.69a45.27,45.27,0,0,0-.2-5.88,1.4,1.4,0,0,0-1.1-1.08c-.53-.13-.79-.4-.79-.82s.23-.84.7-.84A37,37,0,0,0-1333.3,297.93Z" transform="translate(1673.22 -91.44)"/><path class="cls-2" d="M-1311.95,297.84c.74-.07,1.87-.1,3.39-.1a4.2,4.2,0,0,1,1.7.31,7.59,7.59,0,0,1-.48,2.51,31.69,31.69,0,0,1-4.61.6l-.2,13.83a40.1,40.1,0,0,0,.17,4.33,5.49,5.49,0,0,0,.79,2.32,1.83,1.83,0,0,0,1.59.94c.56,0,1.35-.51,2.37-1.54a.7.7,0,0,1,.4-.22c.23,0,.35.21.35.63a4.37,4.37,0,0,1-1.47,2.48,4.57,4.57,0,0,1-3.44,1.56,4.18,4.18,0,0,1-3.66-2q-1.34-2-1.33-8.34,0-7,.14-14a13.43,13.43,0,0,1-2.53-.16.84.84,0,0,1-.74-.91c0-.41.28-.75.85-1a7.07,7.07,0,0,0,3-2.38,15.12,15.12,0,0,0,2.27-5.49c.26-1,.43-1.65.52-1.87s.22-.33.39-.33c.35,0,.52.51.52,1.51Z" transform="translate(1673.22 -91.44)"/><path class="cls-2" d="M-1299.48,310.57c0,.6,0,1,0,1.32a20,20,0,0,0,1.26,7.54q1.26,3.09,3.39,3.09c1.46,0,2.89-1.1,4.31-3.3.29-.44.49-.66.61-.66.31,0,.47.3.47.88a6.23,6.23,0,0,1-1.08,2.48,7.65,7.65,0,0,1-2.66,2.7,6.51,6.51,0,0,1-3.26.91c-2.46,0-4.39-1.31-5.78-3.91a19.25,19.25,0,0,1-2.09-9.2,21.68,21.68,0,0,1,2.4-10.68c1.59-2.87,3.59-4.31,6-4.31s4,1.3,5.13,3.92a18.27,18.27,0,0,1,1.76,7.46c0,.75-.12,1.2-.34,1.35a6,6,0,0,1-2.23.22Zm.11-2.29,3.09.06c1.36,0,2.2-.17,2.51-.5a3.2,3.2,0,0,0,.46-2,11.57,11.57,0,0,0-.85-4.55c-.57-1.31-1.25-2-2-2Q-1299,299.28-1299.37,308.28Z" transform="translate(1673.22 -91.44)"/><path class="cls-2" d="M-1281,303.64a15,15,0,0,1,2.08-4.74,3.33,3.33,0,0,1,2.62-1.57,2.48,2.48,0,0,1,2.2,1.38,6.63,6.63,0,0,1,.83,3.45,6,6,0,0,1-.59,2.78q-.59,1.14-1.44,1.14a1.28,1.28,0,0,1-1-.56,7.88,7.88,0,0,1-.89-2q-.64-2.07-1.14-2.07c-.44,0-.95.79-1.52,2.35s-.85,4.6-.85,9.11q0,8.55.34,9.51a1.39,1.39,0,0,0,1.47.95c.67,0,1,.32,1,.94s-.33.88-1,.88a10.84,10.84,0,0,1-1.57-.17,12.62,12.62,0,0,0-1.78-.14,27.81,27.81,0,0,0-3.54.22l-.87.09c-.51,0-.76-.33-.76-1a.83.83,0,0,1,.89-.92,1.37,1.37,0,0,0,1.21-.71,7.11,7.11,0,0,0,.34-2.8l.07-7.83q0-2.39-.1-5.92c-.08-2.36-.14-3.76-.2-4.21a2.72,2.72,0,0,0-.47-1.21,1.42,1.42,0,0,0-1-.62,1.65,1.65,0,0,1-.82-.3,1,1,0,0,1-.17-.71q0-.84.9-.87a41.68,41.68,0,0,0,5.66-.76Z" transform="translate(1673.22 -91.44)"/><path class="cls-2" d="M-1261.74,283.16q9.39.43,13.9.44c2.28,0,4.8-.12,7.54-.35,1-.08,1.78-.12,2.4-.12l1.22,0c.08.86.19,2.62.32,5.3l.27,5c0,.82-.19,1.23-.59,1.23s-.59-.5-.87-1.51a17.7,17.7,0,0,0-1.76-4.36,5.51,5.51,0,0,0-2.5-2.41,13.15,13.15,0,0,0-4.7-.6q-.29,4.8-.29,12,0,7.38.17,14.22c.1,4.57.24,7.33.39,8.27a4.36,4.36,0,0,0,.8,2.07,4.3,4.3,0,0,0,2.64.91.77.77,0,0,1,.71.88c0,.58-.21.87-.62.87l-.51,0-3.75-.15c-2.92,0-4.69,0-5.32.06l-2.28.16c-.19,0-.56,0-1.13-.07-.28-.1-.41-.36-.41-.78,0-.61.22-.91.68-.91a2.79,2.79,0,0,0,2.43-1.16,7.64,7.64,0,0,0,1-3.69q.2-2.52.19-11,0-13.32-.47-21.7a15.22,15.22,0,0,0-4.31.43,5.16,5.16,0,0,0-2.56,2.32,16.74,16.74,0,0,0-2,4.9c-.21.8-.44,1.2-.71,1.2s-.61-.32-.61-.95c0-.18.07-1.56.22-4.12S-1261.93,284.85-1261.74,283.16Z" transform="translate(1673.22 -91.44)"/><path class="cls-2" d="M-1228.81,303.64a14.75,14.75,0,0,1,2.08-4.74,3.32,3.32,0,0,1,2.62-1.57,2.48,2.48,0,0,1,2.2,1.38,6.63,6.63,0,0,1,.82,3.45,5.92,5.92,0,0,1-.59,2.78c-.39.76-.87,1.14-1.43,1.14a1.25,1.25,0,0,1-1.05-.56,7.54,7.54,0,0,1-.89-2q-.65-2.07-1.14-2.07c-.45,0-1,.79-1.52,2.35s-.85,4.6-.85,9.11q0,8.55.34,9.51a1.39,1.39,0,0,0,1.47.95c.66,0,1,.32,1,.94s-.32.88-1,.88a11.09,11.09,0,0,1-1.58-.17,12.37,12.37,0,0,0-1.77-.14,28,28,0,0,0-3.55.22l-.86.09c-.51,0-.76-.33-.76-1a.83.83,0,0,1,.88-.92,1.36,1.36,0,0,0,1.21-.71,7,7,0,0,0,.35-2.8l.07-7.83c0-1.59,0-3.56-.11-5.92s-.14-3.76-.2-4.21a2.7,2.7,0,0,0-.46-1.21,1.44,1.44,0,0,0-1-.62,1.7,1.7,0,0,1-.83-.3,1.06,1.06,0,0,1-.17-.71c0-.56.3-.85.91-.87a41.88,41.88,0,0,0,5.66-.76Z" transform="translate(1673.22 -91.44)"/><path class="cls-2" d="M-1211.42,321.89a10.64,10.64,0,0,1-2.27,2.77,3.61,3.61,0,0,1-2.29.93,3.1,3.1,0,0,1-2.85-1.93,10.1,10.1,0,0,1-1-4.7,11.09,11.09,0,0,1,.61-3.82,7.18,7.18,0,0,1,1.49-2.6,16.19,16.19,0,0,1,3-2.22,13,13,0,0,0,2.32-1.68,4.69,4.69,0,0,0,1-1.79,9.55,9.55,0,0,0,.4-3.05,7.58,7.58,0,0,0-.6-3.29,1.81,1.81,0,0,0-1.64-1.23,1.3,1.3,0,0,0-1.27.78,8.53,8.53,0,0,0-.58,2.59c-.28,2.37-1,3.56-2.23,3.56a1.52,1.52,0,0,1-1.26-.75,3.8,3.8,0,0,1-.53-2.17,5.4,5.4,0,0,1,1.89-4.5,7.1,7.1,0,0,1,4.52-1.49,5.55,5.55,0,0,1,3.68,1.19,5.33,5.33,0,0,1,1.82,2.76,22.11,22.11,0,0,1,.4,4.9l0,7.43a70.81,70.81,0,0,0,.23,7.52c.15,1.11.47,1.67,1,1.67a1.17,1.17,0,0,0,.29,0,3.77,3.77,0,0,1,.49-.06.64.64,0,0,1,.74.72,1.14,1.14,0,0,1-.3.8,5.61,5.61,0,0,1-1.86.84,9.26,9.26,0,0,1-2.79.5,1.77,1.77,0,0,1-1.71-.83A6.59,6.59,0,0,1-1211.42,321.89Zm.23-12.58a9.15,9.15,0,0,1-2.08,2.42,8.8,8.8,0,0,0-2,2.46,7.77,7.77,0,0,0-.51,3.17,8.12,8.12,0,0,0,.54,3.35c.35.76.79,1.15,1.31,1.15q1.05,0,2-1.68c.61-1.13.91-3.1.91-5.93C-1211.08,313.37-1211.12,311.72-1211.19,309.31Z" transform="translate(1673.22 -91.44)"/><path class="cls-2" d="M-1195.85,297.3q.07,4.4.07,15.65l0,6.74a6.31,6.31,0,0,0,.39,2.73,1.91,1.91,0,0,0,1.28.91c.67.15,1,.48,1,1s-.27.85-.8.85q-.37,0-1.32-.09a35.08,35.08,0,0,0-3.94-.22,12.08,12.08,0,0,0-2,.17,4.62,4.62,0,0,1-.81.14c-.53,0-.8-.28-.8-.85s.35-.86,1-1a1.68,1.68,0,0,0,1.56-1.61c.11-.93.16-2.82.16-5.66q0-5.52-.1-10.15a27.41,27.41,0,0,0-.37-5.28,1.73,1.73,0,0,0-1.41-.88c-.59-.1-.89-.41-.89-.91s.3-.79.91-.88l.38-.06Zm-.25-10.6a6.3,6.3,0,0,1-.77,3.19,2.19,2.19,0,0,1-1.84,1.33,2.19,2.19,0,0,1-1.84-1.33,6.3,6.3,0,0,1-.76-3.19,6.29,6.29,0,0,1,.76-3.2,2.18,2.18,0,0,1,1.84-1.31,2.18,2.18,0,0,1,1.84,1.31A6.29,6.29,0,0,1-1196.1,286.7Z" transform="translate(1673.22 -91.44)"/><path class="cls-2" d="M-1185,303.42a14.54,14.54,0,0,1,2.67-4.52,4.24,4.24,0,0,1,3.08-1.5,3.38,3.38,0,0,1,2.52,1.22,6.39,6.39,0,0,1,1.54,2.92,21.09,21.09,0,0,1,.41,4.79l-.16,12.52a13.75,13.75,0,0,0,.27,3.42,1.57,1.57,0,0,0,1.14,1.09,1,1,0,0,1,.72,1c0,.54-.23.81-.7.81s-1.27-.08-2.63-.25c-.47,0-.85-.06-1.13-.06a22.85,22.85,0,0,0-2.39.31h-.89c-.49,0-.74-.28-.74-.85a.87.87,0,0,1,.67-.9,2,2,0,0,0,1-.73c.25-.33.41-2,.48-4.93s.12-5.88.12-8.79a33.1,33.1,0,0,0-.44-6.63c-.3-1.19-.86-1.79-1.69-1.79-1,0-2,1.31-2.85,3.91s-1.31,6.6-1.31,12a40.34,40.34,0,0,0,.18,4.55,4.76,4.76,0,0,0,.44,1.77,2.06,2.06,0,0,0,1.11.61c.34.11.51.41.51.91s-.25.88-.74.88a5.93,5.93,0,0,1-.8-.06c-1.16-.17-1.78-.25-1.88-.25a23.73,23.73,0,0,0-4.27.31,2.16,2.16,0,0,1-.43.06c-.45,0-.67-.3-.67-.91s.2-.82.59-.9a1.65,1.65,0,0,0,1.25-.88,16.75,16.75,0,0,0,.48-4.32q.15-3.63.15-8.65a65.41,65.41,0,0,0-.27-7.93,3.15,3.15,0,0,0-1.3-2.21c-.49-.34-.74-.66-.74-1,0-.5.36-.75,1.07-.75a23.58,23.58,0,0,0,4.86-.41A28.64,28.64,0,0,1-1185,303.42Z" transform="translate(1673.22 -91.44)"/><path class="cls-2" d="M-1164.58,297.3q.06,4.4.07,15.65l-.06,6.74a6.31,6.31,0,0,0,.39,2.73,1.93,1.93,0,0,0,1.28.91c.67.15,1,.48,1,1s-.26.85-.79.85q-.39,0-1.32-.09a35.25,35.25,0,0,0-4-.22,11.86,11.86,0,0,0-2,.17,4.68,4.68,0,0,1-.82.14c-.53,0-.79-.28-.79-.85s.35-.86,1-1a1.68,1.68,0,0,0,1.55-1.61c.11-.93.16-2.82.16-5.66q0-5.52-.09-10.15a26.11,26.11,0,0,0-.38-5.28,1.73,1.73,0,0,0-1.41-.88c-.59-.1-.88-.41-.88-.91s.3-.79.9-.88l.38-.06Zm-.26-10.6a6.2,6.2,0,0,1-.77,3.19,2.19,2.19,0,0,1-1.83,1.33,2.19,2.19,0,0,1-1.85-1.33,6.41,6.41,0,0,1-.76-3.19,6.39,6.39,0,0,1,.76-3.2,2.18,2.18,0,0,1,1.85-1.31,2.18,2.18,0,0,1,1.83,1.31A6.19,6.19,0,0,1-1164.84,286.7Z" transform="translate(1673.22 -91.44)"/><path class="cls-2" d="M-1153.75,303.42a14.54,14.54,0,0,1,2.67-4.52,4.26,4.26,0,0,1,3.09-1.5,3.37,3.37,0,0,1,2.51,1.22,6.41,6.41,0,0,1,1.55,2.92,21.68,21.68,0,0,1,.41,4.79l-.17,12.52a13.75,13.75,0,0,0,.27,3.42,1.59,1.59,0,0,0,1.14,1.09,1,1,0,0,1,.73,1c0,.54-.24.81-.71.81s-1.27-.08-2.62-.25q-.7-.06-1.14-.06a23.19,23.19,0,0,0-2.39.31h-.89c-.49,0-.74-.28-.74-.85a.88.88,0,0,1,.67-.9,2,2,0,0,0,1-.73c.24-.33.4-2,.48-4.93s.12-5.88.12-8.79a32.13,32.13,0,0,0-.45-6.63c-.29-1.19-.86-1.79-1.69-1.79-1,0-2,1.31-2.85,3.91s-1.31,6.6-1.31,12a40.34,40.34,0,0,0,.18,4.55,4.76,4.76,0,0,0,.44,1.77,2.09,2.09,0,0,0,1.12.61c.33.11.5.41.5.91s-.24.88-.74.88a5.67,5.67,0,0,1-.79-.06c-1.16-.17-1.79-.25-1.89-.25a23.8,23.8,0,0,0-4.27.31,2.07,2.07,0,0,1-.43.06c-.45,0-.67-.3-.67-.91s.2-.82.6-.9a1.66,1.66,0,0,0,1.25-.88,17.79,17.79,0,0,0,.48-4.32q.15-3.63.15-8.65a65.41,65.41,0,0,0-.27-7.93,3.19,3.19,0,0,0-1.3-2.21c-.5-.34-.75-.66-.75-1,0-.5.36-.75,1.07-.75a23.75,23.75,0,0,0,4.87-.41A28.66,28.66,0,0,1-1153.75,303.42Z" transform="translate(1673.22 -91.44)"/><path class="cls-2" d="M-1126.64,300.19c1.42-2.18,2.66-3.26,3.72-3.26a2,2,0,0,1,1.75,1.06,4.49,4.49,0,0,1,.68,2.45,4.81,4.81,0,0,1-.47,2.12,1.44,1.44,0,0,1-1.29.95c-.76,0-1.31-.71-1.64-2.13-.23-.94-.46-1.41-.67-1.41s-.73.5-1.43,1.5a15,15,0,0,1,1,5.4,14.58,14.58,0,0,1-1,5.41,7.87,7.87,0,0,1-2.36,3.49,9,9,0,0,1-3.94,1.45c-1.46.23-2.34.61-2.66,1.16a3.73,3.73,0,0,0-.48,1.88,1.56,1.56,0,0,0,1,1.63,24.8,24.8,0,0,0,5.41.59q6.81.38,6.8,7.75a13.26,13.26,0,0,1-2.54,8.33c-1.69,2.2-4.25,3.31-7.68,3.31q-3.87,0-5.59-2a6.7,6.7,0,0,1-1.72-4.59,7.85,7.85,0,0,1,1.4-4.72,9.13,9.13,0,0,1,4.21-3,5.3,5.3,0,0,1-3.2-1.62,5,5,0,0,1-1.07-3.37,6.88,6.88,0,0,1,1-3.79,6.38,6.38,0,0,1,3-2.35,7.06,7.06,0,0,1-3.1-3.2,11.78,11.78,0,0,1-1-5.24,13.29,13.29,0,0,1,2.1-7.64,6.13,6.13,0,0,1,5.17-3.09,4.94,4.94,0,0,1,2.64.72A6.3,6.3,0,0,1-1126.64,300.19Zm-9.57,34.31a6,6,0,0,0,1.22,3.73,4.09,4.09,0,0,0,3.44,1.6,5.58,5.58,0,0,0,4.48-2.14,7.6,7.6,0,0,0,1.78-5.05,4.1,4.1,0,0,0-1.43-3.46,5.79,5.79,0,0,0-3.67-1.11,5.32,5.32,0,0,0-4.24,1.83A6.75,6.75,0,0,0-1136.21,334.5Zm1.93-27.74a19.39,19.39,0,0,0,.79,6.27c.52,1.47,1.15,2.21,1.87,2.21s1.31-.63,1.68-1.9a21.35,21.35,0,0,0,.56-5.7,23.39,23.39,0,0,0-.67-6.32c-.46-1.53-1-2.29-1.75-2.29s-1.32.69-1.78,2.07A18.19,18.19,0,0,0-1134.28,306.76Z" transform="translate(1673.22 -91.44)"/><path class="cls-2" d="M-1098.56,283.38c.42,0,1.29.06,2.6.17,1,.1,1.8.14,2.39.14l5.55-.25c.47,0,.71.28.71.85a.78.78,0,0,1-.63.88,2.81,2.81,0,0,0-1.91.92,7.73,7.73,0,0,0-.74,3.12c-.18,1.63-.27,5.31-.27,11.06q0,9.9.18,15.31t.74,6.67a1.87,1.87,0,0,0,1.83,1.27c.59,0,.89.27.89.81,0,.74-.32,1.1-1,1.1l-.8,0c-2.26-.27-3.81-.41-4.65-.41a20.53,20.53,0,0,0-4,.29,6.53,6.53,0,0,1-1,.12c-.44,0-.67-.3-.67-.91s.19-.76.56-.85a2.79,2.79,0,0,0,2.08-1.48,18.09,18.09,0,0,0,.64-5.51q.1-4.35.11-13.55,0-9.69-.2-13a11.32,11.32,0,0,0-.66-4,2.32,2.32,0,0,0-1.77-.94c-.45-.07-.68-.39-.68-1S-1099,283.38-1098.56,283.38Z" transform="translate(1673.22 -91.44)"/><path class="cls-2" d="M-1078.88,303.42a14.54,14.54,0,0,1,2.67-4.52,4.25,4.25,0,0,1,3.08-1.5,3.38,3.38,0,0,1,2.52,1.22,6.5,6.5,0,0,1,1.55,2.92,21.79,21.79,0,0,1,.4,4.79l-.16,12.52a13.75,13.75,0,0,0,.27,3.42,1.57,1.57,0,0,0,1.14,1.09,1,1,0,0,1,.73,1c0,.54-.24.81-.71.81s-1.27-.08-2.62-.25q-.71-.06-1.14-.06a22.85,22.85,0,0,0-2.39.31h-.89c-.49,0-.74-.28-.74-.85a.87.87,0,0,1,.67-.9,2.05,2.05,0,0,0,1-.73c.24-.33.4-2,.48-4.93s.11-5.88.11-8.79a32.35,32.35,0,0,0-.44-6.63c-.3-1.19-.86-1.79-1.69-1.79-1,0-2,1.31-2.85,3.91s-1.31,6.6-1.31,12A40.34,40.34,0,0,0-1079,321a4.76,4.76,0,0,0,.44,1.77,2.1,2.1,0,0,0,1.11.61c.34.11.51.41.51.91s-.25.88-.74.88a5.93,5.93,0,0,1-.8-.06c-1.16-.17-1.78-.25-1.88-.25a23.73,23.73,0,0,0-4.27.31,2.07,2.07,0,0,1-.43.06c-.45,0-.67-.3-.67-.91s.2-.82.59-.9a1.63,1.63,0,0,0,1.25-.88,16.75,16.75,0,0,0,.48-4.32c.1-2.42.16-5.3.16-8.65a62.4,62.4,0,0,0-.28-7.93,3.15,3.15,0,0,0-1.3-2.21c-.49-.34-.74-.66-.74-1,0-.5.36-.75,1.07-.75a23.58,23.58,0,0,0,4.86-.41A28.64,28.64,0,0,1-1078.88,303.42Z" transform="translate(1673.22 -91.44)"/><path class="cls-2" d="M-1052.3,316.12a14.48,14.48,0,0,1-.68,4.39,8.72,8.72,0,0,1-2,3.53,4.34,4.34,0,0,1-3.2,1.39,5.13,5.13,0,0,1-3.85-1.63c-.46-.46-.75-.69-.89-.69s-.28.18-.36.53q-.29,1.23-.69,1.23c-.15,0-.27-.11-.33-.31a20.88,20.88,0,0,1-.17-2.8c0-1.66-.06-3.62-.06-5.9,0-.87.15-1.31.44-1.31s.59.65.92,1.94q1.74,7.06,4.74,7.06a2.18,2.18,0,0,0,1.78-.94,4.37,4.37,0,0,0,.73-2.73,4.83,4.83,0,0,0-.67-2.59,13.69,13.69,0,0,0-2.6-2.71,18.15,18.15,0,0,1-4-4.33,9.59,9.59,0,0,1-1.09-4.92,9.68,9.68,0,0,1,1.58-5.75,4.62,4.62,0,0,1,3.87-2.21,5.36,5.36,0,0,1,3.71,1.88c.17.16.3.25.41.25s.28-.23.36-.69.3-.88.53-.88.26.09.32.28a27.26,27.26,0,0,1,.26,2.93c.11,1.77.16,3.24.16,4.41,0,.82-.14,1.22-.42,1.22s-.58-.58-.88-1.75q-1.55-5.83-4.43-5.84a2,2,0,0,0-1.7.91,3.27,3.27,0,0,0-.66,2,3.86,3.86,0,0,0,.84,2.41,18.61,18.61,0,0,0,3.23,3,25.1,25.1,0,0,1,2.87,2.53,7.24,7.24,0,0,1,1.37,2.57A11.2,11.2,0,0,1-1052.3,316.12Z" transform="translate(1673.22 -91.44)"/><path class="cls-2" d="M-1042.59,297.84c.74-.07,1.87-.1,3.39-.1a4.16,4.16,0,0,1,1.7.31,7.59,7.59,0,0,1-.48,2.51,31.41,31.41,0,0,1-4.61.6l-.19,13.83a37.62,37.62,0,0,0,.17,4.33,5.36,5.36,0,0,0,.78,2.32,1.85,1.85,0,0,0,1.6.94c.55,0,1.34-.51,2.37-1.54a.68.68,0,0,1,.39-.22c.23,0,.35.21.35.63a4.37,4.37,0,0,1-1.47,2.48,4.55,4.55,0,0,1-3.43,1.56,4.19,4.19,0,0,1-3.67-2c-.88-1.32-1.33-4.1-1.33-8.34q0-7,.15-14a13.49,13.49,0,0,1-2.54-.16.84.84,0,0,1-.74-.91c0-.41.28-.75.85-1a7.07,7.07,0,0,0,3-2.38,15.12,15.12,0,0,0,2.27-5.49c.26-1,.43-1.65.52-1.87s.22-.33.39-.33c.35,0,.52.51.52,1.51Z" transform="translate(1673.22 -91.44)"/><path class="cls-2" d="M-1028.75,297.3q.07,4.4.08,15.65l-.06,6.74a6.31,6.31,0,0,0,.39,2.73,1.93,1.93,0,0,0,1.28.91c.67.15,1,.48,1,1s-.26.85-.8.85q-.37,0-1.32-.09a35,35,0,0,0-3.94-.22,11.86,11.86,0,0,0-2,.17,4.68,4.68,0,0,1-.82.14c-.53,0-.79-.28-.79-.85s.34-.86,1-1a1.68,1.68,0,0,0,1.56-1.61c.11-.93.16-2.82.16-5.66q0-5.52-.1-10.15a26.52,26.52,0,0,0-.37-5.28,1.73,1.73,0,0,0-1.41-.88c-.59-.1-.88-.41-.88-.91s.3-.79.9-.88l.38-.06Zm-.25-10.6a6.3,6.3,0,0,1-.77,3.19,2.19,2.19,0,0,1-1.83,1.33,2.19,2.19,0,0,1-1.85-1.33,6.3,6.3,0,0,1-.76-3.19,6.29,6.29,0,0,1,.76-3.2,2.18,2.18,0,0,1,1.85-1.31,2.18,2.18,0,0,1,1.83,1.31A6.29,6.29,0,0,1-1029,286.7Z" transform="translate(1673.22 -91.44)"/><path class="cls-2" d="M-1017.11,297.84c.73-.07,1.86-.1,3.38-.1a4.13,4.13,0,0,1,1.7.31,7.59,7.59,0,0,1-.48,2.51,31.38,31.38,0,0,1-4.6.6l-.2,13.83a40.1,40.1,0,0,0,.17,4.33,5.49,5.49,0,0,0,.79,2.32,1.83,1.83,0,0,0,1.59.94c.56,0,1.35-.51,2.37-1.54a.7.7,0,0,1,.4-.22c.23,0,.34.21.34.63a4.4,4.4,0,0,1-1.46,2.48,4.59,4.59,0,0,1-3.44,1.56,4.16,4.16,0,0,1-3.66-2q-1.34-2-1.33-8.34,0-7,.14-14a13.36,13.36,0,0,1-2.53-.16.83.83,0,0,1-.74-.91c0-.41.28-.75.85-1a7.13,7.13,0,0,0,3-2.38,15.3,15.3,0,0,0,2.27-5.49c.25-1,.43-1.65.51-1.87s.22-.33.39-.33c.35,0,.53.51.53,1.51Z" transform="translate(1673.22 -91.44)"/><path class="cls-2" d="M-1004.12,297.93q.09,3.22.09,8.81,0,8.47.09,10.84a8.77,8.77,0,0,0,.71,3.56c.42.79.89,1.19,1.42,1.19a2.59,2.59,0,0,0,1.91-1.23,8,8,0,0,0,1.43-3.19,31.58,31.58,0,0,0,.46-6.46l0-6.93a24.53,24.53,0,0,0-.17-3.64,1.12,1.12,0,0,0-1.17-.94c-.72-.07-1.08-.39-1.08-1,0-.35.08-.58.26-.67a4,4,0,0,1,1.38-.14,45.72,45.72,0,0,0,4.69-.22q.07,1.23.07,13.39,0,9.78.11,10.68t1.17,1.05c.43.08.64.39.64.91s-.24.91-.73.91l-.45,0a10,10,0,0,0-1.19-.07c-1.61,0-2.49,0-2.66,0l-.49,0c-.23,0-.37-.07-.43-.21a5.07,5.07,0,0,1-.08-1.2c0-1.09.05-2.19.13-3.3a13.16,13.16,0,0,1-2.63,3.95,4.2,4.2,0,0,1-2.91,1.32q-4.61,0-4.61-9v-9.69a42.5,42.5,0,0,0-.21-5.88,1.39,1.39,0,0,0-1.09-1.08c-.53-.13-.8-.4-.8-.82s.24-.84.71-.84A37,37,0,0,0-1004.12,297.93Z" transform="translate(1673.22 -91.44)"/><path class="cls-2" d="M-982.77,297.84c.73-.07,1.86-.1,3.38-.1a4.13,4.13,0,0,1,1.7.31,7.59,7.59,0,0,1-.48,2.51,31.38,31.38,0,0,1-4.6.6L-983,315a40.1,40.1,0,0,0,.17,4.33,5.49,5.49,0,0,0,.79,2.32,1.83,1.83,0,0,0,1.59.94c.56,0,1.35-.51,2.37-1.54a.7.7,0,0,1,.4-.22c.23,0,.34.21.34.63a4.4,4.4,0,0,1-1.46,2.48,4.59,4.59,0,0,1-3.44,1.56,4.16,4.16,0,0,1-3.66-2q-1.33-2-1.33-8.34,0-7,.14-14a13.36,13.36,0,0,1-2.53-.16.83.83,0,0,1-.74-.91c0-.41.28-.75.85-1a7.13,7.13,0,0,0,3-2.38,15.3,15.3,0,0,0,2.27-5.49c.25-1,.42-1.65.51-1.87s.22-.33.39-.33c.35,0,.53.51.53,1.51Z" transform="translate(1673.22 -91.44)"/><path class="cls-2" d="M-970.31,310.57c0,.6,0,1,0,1.32a20,20,0,0,0,1.25,7.54q1.26,3.09,3.4,3.09c1.45,0,2.89-1.1,4.3-3.3.29-.44.5-.66.62-.66.31,0,.47.3.47.88a6.15,6.15,0,0,1-1.09,2.48,7.57,7.57,0,0,1-2.66,2.7,6.47,6.47,0,0,1-3.25.91c-2.46,0-4.39-1.31-5.79-3.91a19.25,19.25,0,0,1-2.08-9.2,21.69,21.69,0,0,1,2.39-10.68q2.4-4.31,6-4.31c2.25,0,4,1.3,5.13,3.92a18.13,18.13,0,0,1,1.77,7.46c0,.75-.12,1.2-.35,1.35a6,6,0,0,1-2.22.22Zm.11-2.29,3.1.06c1.36,0,2.2-.17,2.5-.5a3.13,3.13,0,0,0,.46-2,11.4,11.4,0,0,0-.85-4.55c-.56-1.31-1.24-2-2-2Q-969.8,299.28-970.2,308.28Z" transform="translate(1673.22 -91.44)"/><path class="cls-3" d="M46.81,358.56c-6.35,0-11.3-3.37-13.22-9-1.85-5.39-.31-10.46,4.56-15.06l.44-.42c2.57-3,5.38-6.17,8.3-9.42,3.69-4.1,7.2-8.59,10.91-13.34,9.2-11.76,18.7-23.92,31.85-30.94,7.12-3.8,15.15-5.57,25.26-5.57,5.45,0,10.88.5,16.14,1,5,.47,9.79.91,14.34.91.61,0,1.21,0,1.81,0,24.61-.7,45-22.41,45.48-48.39.56-31-16.79-52.69-43.18-54-5.19-.27-10.79-.4-17.11-.4-7.31,0-14.8.18-22,.34l-5.51.13h-.76c-8.78,0-16-3.42-22-10.44-4.16-4.87-8.37-9.56-12.82-14.52-11.41-12.73-23.2-25.9-34.4-42.3a10,10,0,0,1,8.26-15.64l.78,0c14.71,1.15,29,1.31,41.08,1.31,4.62,0,9.21,0,13.79,0s9.13,0,13.67,0c18.15,0,37.65.38,57.22,3.17,26.22,3.73,52.09,21.56,71,48.91C258.79,171,268.17,202,266.41,229.93c-4.49,71.18-48.58,121.17-112.31,127.35-8,.77-16.6,1.15-26.42,1.15-9,0-18-.31-26.69-.6-8.54-.29-17.37-.59-26-.59a247.6,247.6,0,0,0-25.41,1.15A25.68,25.68,0,0,1,46.81,358.56Z" transform="translate(1673.22 -91.44)"/><path class="cls-3" d="M96.22,294.43a10,10,0,0,1-7.28-3.15c-3.64-3.88-7.16-7.57-10.57-11.15C70.62,272,63.3,264.3,56.22,256.31a64.65,64.65,0,0,0-6-5.55c-6.81-5.85-15.29-13.12-14.7-24.5.5-9.65,8-16.8,14.58-23.11,2-2,4-3.79,5.47-5.5,7.43-8.39,14.92-16.58,22.84-25.26q5.08-5.56,10.39-11.4a10,10,0,0,1,17.4,6.73V284.43a10,10,0,0,1-10,10Z" transform="translate(1673.22 -91.44)"/><path class="cls-3" d="M291.71,253.47c-6.43,0-11.53-1.95-15.17-5.8-6-6.29-6.28-15.72-5.81-24.12.4-7.08.3-14.21.2-21.76-.05-3.36-.1-6.83-.1-10.26V181.29c0-8.77,0-17.85,0-26.76A38.83,38.83,0,0,1,272,143.47c2.93-10,10.83-11,13.18-11,1.83,0,3.78-.22,5.86-.41,2.68-.24,5.45-.5,8.39-.5,7.24,0,13.13,1.6,18.53,5,12.91,8.16,19.48,23.52,19.53,45.62.05,25.23-1.27,43.18-8,54.71-8.35,14.29-22.91,16.42-37.4,16.59Zm9.56-83.35c0,1.19.06,2.51.1,3.56a66.73,66.73,0,0,1,0,7.62c-.14,1.95-.09,4.11,0,6.4,0,1.05,0,2.1,0,3.15,0,2.28,0,4.5,0,6.72,0,5.05,0,10.28,0,15.38a22.38,22.38,0,0,0,.18,2.84c1.95-1.64,5.15-7,5.4-16,.19-6.68.2-12.12,0-17.13C306.73,173.18,304.17,170.77,301.27,170.12Z" transform="translate(1673.22 -91.44)"/><path class="cls-3" d="M379.29,280.27a21.22,21.22,0,0,1-14.65-6c-5.68-5.3-8-12.22-6.78-20.55a19.77,19.77,0,0,1,2.07-6.7c-.53-.5-1-1-1.54-1.58-9.41-10.45-12.71-29.73-9.8-57.3,1.92-18.16,15-32.38,29.81-32.38,15.08,0,27.88,14.77,29.81,34.31a269.74,269.74,0,0,1-.17,56.72C405.86,265.89,393.5,280.27,379.29,280.27Zm-1-78.84c-.07,1.19-.11,2.56-.11,4.12s.05,2.75.11,3.87c.08-1.37.12-3,.11-4.81C378.4,203.45,378.36,202.39,378.3,201.43Z" transform="translate(1673.22 -91.44)"/><path class="cls-3" d="M737.26,279.25A23.21,23.21,0,0,1,723,274.48c-6-4.55-8.27-12.45-6.55-22.24a17.91,17.91,0,0,1,1.83-5.5c-4.52-4.42-8.55-11.39-10.88-22.28-4.54-21.26-1.6-44.25,7.15-55.89,7.94-10.54,16.44-12.76,22.17-12.76,5.34,0,13.27,1.93,20.74,11.14,6.5,8,9.75,18.14,9.66,30.08l-.06,7.1c-.11,11.72-.22,23.84.09,35.65.42,16.27-5.44,25.79-10.43,30.91A27.17,27.17,0,0,1,737.26,279.25Zm-.77-79.42a54.56,54.56,0,0,0-.32,5.47,41.44,41.44,0,0,0,.44,7,47.77,47.77,0,0,0,.15-6.33v-.33C736.76,203.35,736.65,201.43,736.49,199.83Z" transform="translate(1673.22 -91.44)"/><path class="cls-3" d="M490.79,255a23.89,23.89,0,0,1-17.37-7.39c-7.72-7.84-11.47-21-11.16-39.21.25-14.82,2.31-26.76,6.1-35.48,6.55-15.07,16.93-17.32,22.54-17.32,4.9,0,10,1.64,15,4.87C516.12,167,521,178.22,520.5,193.8c-.31,9.47-2.52,16.15-5.61,20.85a18,18,0,0,1,4.63,9.36c1.5,7.17.48,17.51-12.89,26.07A29.54,29.54,0,0,1,490.79,255Z" transform="translate(1673.22 -91.44)"/><path class="cls-3" d="M536.15,255c-5.45,0-15.55-2.17-22.08-16.69-6.76-15-8.54-32.56-5.13-50.68S525,155.8,538.45,155.8a19.9,19.9,0,0,1,5.44.75c9.22,2.63,24.71,11.75,24.84,43.33q0,5.1,0,10.2v4.68a10.44,10.44,0,0,1-.12,1.59c0,1.88.13,3.84.23,5.88.32,6.61.65,13.45-.85,19.81-2.58,11-10.44,11.82-12.78,11.82a14.92,14.92,0,0,1-7.08-2A26.44,26.44,0,0,1,536.15,255Zm2.23-55.47a37.59,37.59,0,0,0-.5,6,39,39,0,0,0,.5,6.93,44.07,44.07,0,0,0,0-5.75,11.81,11.81,0,0,1,0-1.19A48,48,0,0,0,538.38,199.53Z" transform="translate(1673.22 -91.44)"/><path class="cls-3" d="M632.71,253.2a15.93,15.93,0,0,1-1.81-.1c-3.67-.43-11.28-2.57-14-12.89A14.52,14.52,0,0,1,613,249.4a12.85,12.85,0,0,1-9.28,3.79h0l-.75,0c-10.06-.5-16.12-7.36-16.22-18.34,0-2.67-.06-5.34-.09-8-.16-12.22-.33-24.86.68-37.25,1.55-19,13.82-33.33,28.56-33.33a22.57,22.57,0,0,1,2.72.17c16.29,2.08,26.6,16.91,27.56,39.69.19,4.62.14,9.21.1,13.65,0,2,0,4,0,6,0,1.55,0,3.11,0,4.67,0,3.87.05,7.87,0,11.87,0,.71,0,1.46,0,2.21.1,4.36.25,10.33-4.11,14.79A13,13,0,0,1,632.71,253.2Z" transform="translate(1673.22 -91.44)"/><path class="cls-3" d="M703.5,253.16c-6.06,0-13.1-3.6-15.66-13.25a18.42,18.42,0,0,1-.63,3.83,12.59,12.59,0,0,1-12,9.39l-.89,0c-4.3,0-14.43-1.57-15.76-16.12-1.5-16.32-2.54-35.53,1.15-54.23,3-15.3,14.51-26.41,27.33-26.41a21.74,21.74,0,0,1,5.89.81c14.21,4,23.21,17.41,24.08,36,.24,5,.18,10.05.12,14.89,0,1.69,0,3.38,0,5.06a9.5,9.5,0,0,1,.09,1.31c0,1.75,0,3.5,0,5.24,0,4.24.09,8.63-.11,13.05,0,.42,0,1.3.08,2.07.24,3.77.59,9.46-3.47,14a13.34,13.34,0,0,1-9.39,4.33C704,253.16,703.76,253.16,703.5,253.16Z" transform="translate(1673.22 -91.44)"/><path class="cls-3" d="M452.07,253.79c-4.81,0-19.18-.06-25.68-15.29-3.74-8.76-4.63-21.56-4.9-40.71-.19-13.77-.05-27.72.08-41.22v-.46c0-4.28.26-8.8,1.57-12.81,2.31-7.07,7.8-11.29,14.69-11.29h.29a14,14,0,0,1,10.25,4.37c4.66,5,4.35,11.73,4.13,16.68,0,1-.09,2-.08,2.86,0,5.91,0,11.82,0,17.73v5.67a10.57,10.57,0,0,1,.16,1.8q0,4.49,0,9c0,6.8.06,13.83-.06,20.79a30.62,30.62,0,0,0,.15,3.91H454c2.81,0,5.51.16,7.77.32,6.2.44,11,4.52,12.84,10.92a40.8,40.8,0,0,1,1.14,10.17v.21c.27,10.07-4.52,16-13.51,16.73l-.49,0a89.67,89.67,0,0,1-9.63.6Z" transform="translate(1673.22 -91.44)"/><path class="cls-3" d="M575.44,253.22c-3.76-.1-16.07-1.86-16.41-20.06-.09-5-.07-10,0-14.79l0-6.07c0-2,0-4,0-6,0-4.43-.09-9,.11-13.64,1.32-30.41,18.36-33.63,24.43-33.8h0a16.77,16.77,0,0,1,3.52-.41c1.28,0,12.53.42,12.8,15.14l0,1.3c.14,5.31.45,17.42-10.15,20.81a38.19,38.19,0,0,0-.39,7.6c.14,9.51.14,19.54,0,29.81,0,.51,0,1.21.06,2,.16,3.87.42,9.71-3.85,14.17a13.19,13.19,0,0,1-9.66,4Z" transform="translate(1673.22 -91.44)"/><path class="cls-3" d="M344.9,253.2c-8.2,0-16.59-5.65-16.82-18.29-.32-17-.35-35.54-.08-58.22.13-12,7.95-17.67,15.64-18h.67c6.3,0,11.3,3.92,13.06,10.24a33.51,33.51,0,0,1,.86,9.09v.85c0,7,0,14.08,0,21.12v8.63q0,3.63,0,7.25c0,5.94,0,12.07-.05,18.14,0,.55,0,1.13.05,1.72.14,3.68.36,9.24-3.8,13.57a13.05,13.05,0,0,1-9.5,3.93Z" transform="translate(1673.22 -91.44)"/><path class="cls-3" d="M416.16,253.16c-9.75-.17-15.86-6.86-15.94-17.44-.13-17.62-.13-36.48,0-59.37.07-13,8.29-17.63,15.95-17.63a13.37,13.37,0,0,1,12.9,9.54,30,30,0,0,1,1.16,9.5q0,8.53,0,17.06,0,6.28,0,12.56,0,13.34,0,26.65a33,33,0,0,1-.89,9c-1.77,6.23-6.71,10.1-12.89,10.1Z" transform="translate(1673.22 -91.44)"/><path class="cls-3" d="M653.57,253.27c-9.44-.12-16.18-7.09-16.4-16.94-.45-20.58-.48-41-.08-60.78.22-11.09,8.35-16.89,16.27-16.89l.7,0a13.05,13.05,0,0,1,12.26,9.63,26.59,26.59,0,0,1,.77,8.16c0,.51,0,1,0,1.5.06,6.74,0,13.56,0,20.16,0,2.65,0,5.3,0,8s0,5.4,0,8.1c0,6.55,0,13.33,0,20,0,.53,0,1.08,0,1.63.1,3.69.27,9.28-3.91,13.58a13,13,0,0,1-9.44,3.86Z" transform="translate(1673.22 -91.44)"/><path class="cls-3" d="M413.25,171.63c-5.69,0-10.34-3.56-12.14-9.31a30.48,30.48,0,0,1-1.08-8.1c-.61-18.13,11.37-20.89,15.06-21.3.5,0,1-.08,1.49-.08,7.62,0,13.19,6.26,13.53,15.22,0,.17,0,.34,0,.51-.21,17.49-8.4,22.14-15.24,23A12.85,12.85,0,0,1,413.25,171.63Z" transform="translate(1673.22 -91.44)"/><path class="cls-3" d="M650.1,171.59a12.51,12.51,0,0,1-9-3.77c-3.09-3.14-4.53-7.67-4.42-13.84.29-15.95,10.08-19.83,14.28-20.76a14.16,14.16,0,0,1,3-.33,12.27,12.27,0,0,1,8.93,3.76c3.88,4,4.33,9.49,4.17,14.85.59,16.27-10.49,19.4-15.32,20A12.74,12.74,0,0,1,650.1,171.59Z" transform="translate(1673.22 -91.44)"/><path class="cls-3" d="M341.17,171.42a12.74,12.74,0,0,1-9.74-4.44c-2.88-3.29-4.18-8.07-3.63-13.21.57-16.15,9.86-19.93,15.38-20.73a13.33,13.33,0,0,1,2-.15,12.31,12.31,0,0,1,8.85,3.67c4.38,4.47,4.27,10.63,4.19,15.59-.31,17.75-13,19.24-16.92,19.27Z" transform="translate(1673.22 -91.44)"/><path class="cls-3" d="M294.47,334c-4.35,0-12.44-1.47-17.77-11.32-3-5.52-4.5-12.15-4.5-19.72a43.36,43.36,0,0,1,4.42-19.9c5.31-10.41,13.12-12,17.3-12a17.71,17.71,0,0,1,5.71.94,10.46,10.46,0,0,1,13.07,6.5,16.23,16.23,0,0,1,.73,4.81l.37,9.86,0,1.34v.28a11.08,11.08,0,0,1-4,8.93,11,11,0,0,1,4.62,9.14c0,3.48-1.32,7-4.4,11.92C306.33,330.78,300.79,334,294.47,334Z" transform="translate(1673.22 -91.44)"/><path class="cls-3" d="M315.08,333.72c-3.37,0-9.71-1.09-14.35-8.4-2.61-4.12-3.94-9.3-3.94-15.39s1.38-11.46,4.11-15.7c4.76-7.43,11.16-8.54,14.56-8.54,5.91,0,11.05,3,14.47,8.35A27.47,27.47,0,0,1,333.85,309a30.82,30.82,0,0,1-3.72,15.09C325.49,332.47,318.71,333.72,315.08,333.72Z" transform="translate(1673.22 -91.44)"/><path class="cls-3" d="M354.39,333.44a12.37,12.37,0,0,1-1.87-.15,11.24,11.24,0,0,0-1.79-.13,8.25,8.25,0,0,0-1.08.1,18.66,18.66,0,0,1-2.24.18,11.32,11.32,0,0,1-1.55-.1,11,11,0,0,1-1.53.1,21.3,21.3,0,0,1-2.54-.2c-.92-.1-1.26-.11-1.27-.11s-.36,0-1.16.12a13.38,13.38,0,0,1-2.17.19,11.68,11.68,0,0,1-1.46-.09,11.22,11.22,0,0,1-3.91-.19c-.2,0-.6,0-1.26,0s-1,0-1.11,0l-.46.08a14,14,0,0,1-2.21.19,10.64,10.64,0,0,1-10.59-10.91,11,11,0,0,1,2.45-7c0-1.49.06-3.8.06-7.42,0-1.41,0-2.52,0-3.39a11,11,0,0,1,6.95-18.24c.17,0,.74-.09,2.07-.32a28.28,28.28,0,0,1,5-.48,10.11,10.11,0,0,1,2.59.34,13.14,13.14,0,0,1,7.8.58,14.31,14.31,0,0,1,5.12-1,13.84,13.84,0,0,1,12.58,7.87.93.93,0,0,1,0,.1A25.79,25.79,0,0,1,363,304.89s-.09,10.86-.09,10.93a10.92,10.92,0,0,1,2.24,6.65A10.74,10.74,0,0,1,354.39,333.44Z" transform="translate(1673.22 -91.44)"/><path class="cls-3" d="M365,349.94c-.63,0-1.35,0-2.35-.12l-.22,0a25.37,25.37,0,0,0-2.62-.17,10.49,10.49,0,0,0-1.16.12l-.17,0a16.78,16.78,0,0,1-2.2.18,10.85,10.85,0,0,1-7.8-18.48c.08-2.61.17-7.9.17-18.66l-.1-9.12a10.9,10.9,0,0,1-2.42-6.92,10.73,10.73,0,0,1,10.78-10.91c1.84,0,3.56-.08,5.14-.22.29,0,.59,0,.89,0a10,10,0,0,1,2.67.37,12.51,12.51,0,0,1,1.74-.11c3.76,0,9.14,1.52,13.43,8.78a29.19,29.19,0,0,1,3.68,15,30.18,30.18,0,0,1-3.5,14.64,18.11,18.11,0,0,1-7.58,7.78,11,11,0,0,1,2.47,7A10.74,10.74,0,0,1,365,349.94Z" transform="translate(1673.22 -91.44)"/><path class="cls-3" d="M383.39,333.69c-2.44,0-14.61-.91-14.61-19v-11a10.85,10.85,0,0,1,8.61-17.27c2.32,0,3.35,0,3.76-.05a9.85,9.85,0,0,1,4.4.25,17.08,17.08,0,0,1,2.6-.17,34.49,34.49,0,0,0,3.68-.17c.34,0,.67,0,1,0a10,10,0,0,1,10,9.42c0,.56.09,1.5.09,14,0,2.88,0,4.93,0,6.38a11.07,11.07,0,0,1,1.9,6.26,10.7,10.7,0,0,1-10.73,10.91,14,14,0,0,1-1.51-.09h-2.08c-.42,0-.81.05-1.2.05a9.81,9.81,0,0,1-1.64-.13A13.63,13.63,0,0,1,383.39,333.69Z" transform="translate(1673.22 -91.44)"/><path class="cls-3" d="M404.69,333.79a14.22,14.22,0,0,1-12-6.39c-2.13-3.16-3-7.33-3-13.93,0-2.43,0-4.89,0-7.36a10.83,10.83,0,0,1-3.17-7.72,11,11,0,0,1,6-9.75,15.33,15.33,0,0,0,.46-1.56,22,22,0,0,1,1-3.26,10.41,10.41,0,0,1,9.62-6.5c4.95,0,9.95,3.53,10.48,10.29a10,10,0,0,1,5.07,9.88c-.32,2.78-.76,6.59-4.37,9.33-.26.2-.51.37-.76.53l0,2.9a10.54,10.54,0,0,1,5.62,9.49c0,4.86-3.13,8.21-4.16,9.31A14.59,14.59,0,0,1,404.69,333.79Z" transform="translate(1673.22 -91.44)"/><path class="cls-3" d="M419.62,333.82c-6.16,0-11.48-3.35-14.6-9.19a29.16,29.16,0,0,1-3.27-13.92,31.66,31.66,0,0,1,3.65-15.53c4.58-8.23,11.19-9.46,14.72-9.46,6.25,0,11.44,3.58,14.25,9.82A28.07,28.07,0,0,1,437,307.1a12.27,12.27,0,0,1-1.39,5.93,11.42,11.42,0,0,1,1,4.71,14.67,14.67,0,0,1-2.54,7.66,17.47,17.47,0,0,1-6.21,6.17A16.33,16.33,0,0,1,419.62,333.82Zm7.51-30.68Z" transform="translate(1673.22 -91.44)"/><path class="cls-3" d="M437.15,333.47a19,19,0,0,1-3.11-.29l-.24,0a19.33,19.33,0,0,0-2.3.14,15.24,15.24,0,0,1-2.11.17,10.75,10.75,0,0,1-10.76-11,10.87,10.87,0,0,1,2.46-7l.05-5.4c0-1.38,0-3.27-.1-5.52v0a11,11,0,0,1,7.9-18.18h.15a36.65,36.65,0,0,0,4.08-.59,9.55,9.55,0,0,1,1.77-.16,10.11,10.11,0,0,1,2.26.26,12.25,12.25,0,0,1,2.57-.26,12.54,12.54,0,0,1,10.79,6.25,16.55,16.55,0,0,1,2.23,8.58,16,16,0,0,1-1.69,7.35,12.16,12.16,0,0,1-5.77,5.6c0,.7,0,1.31,0,1.84a10.93,10.93,0,0,1-8.19,18.22Z" transform="translate(1673.22 -91.44)"/><path class="cls-3" d="M461.5,333.32c-.3,0-.91,0-1.84-.09a10,10,0,0,1-2.81-.62A10.69,10.69,0,0,1,450,322.47a10.9,10.9,0,0,1,4.24-8.75c0-1.57.07-4,.07-8,0-1,0-1.93,0-2.86h-.05A10.67,10.67,0,0,1,443.59,292c0-.37,0-.56.25-4.71.16-2.78.35-5.05.56-6.93a10,10,0,0,1,9.93-8.87h.47c6.08.29,10.6.43,13.44.43,2,0,4.25-.1,6.69-.31,1.28-.11,2.35-.16,3.25-.16.31,0,.84,0,1.58,0a10,10,0,0,1,9.58,9c.07.65.18,2,.37,5.79l.27,4.9c0,.18,0,.36,0,.55,0,7.29-5.46,11.22-10.59,11.22h-.08c0,2.43.06,4.81.12,7.12,0,1.45.07,2.6.1,3.52a10.82,10.82,0,0,1,4.44,8.84,10.63,10.63,0,0,1-10.61,10.88l-.61,0-.41,0-3.45-.14c-3.54,0-4.35,0-4.48,0l-2.23.15Z" transform="translate(1673.22 -91.44)"/><path class="cls-3" d="M489.34,333.47a18.89,18.89,0,0,1-3.1-.29l-.25,0a19.29,19.29,0,0,0-2.29.14,15.25,15.25,0,0,1-2.12.17,10.76,10.76,0,0,1-10.76-11,10.88,10.88,0,0,1,2.47-7l0-5.4c0-1.41,0-3.3-.11-5.51v-.05a11,11,0,0,1,7.9-18.18h.15a35.51,35.51,0,0,0,4.08-.59,9.74,9.74,0,0,1,1.78-.16,10.11,10.11,0,0,1,2.26.26,12.8,12.8,0,0,1,2.57-.26,12.51,12.51,0,0,1,10.78,6.25,16.49,16.49,0,0,1,2.24,8.58,15.85,15.85,0,0,1-1.7,7.35,12,12,0,0,1-5.77,5.6c0,.7,0,1.31,0,1.84a10.93,10.93,0,0,1-8.2,18.22Z" transform="translate(1673.22 -91.44)"/><path class="cls-3" d="M500.09,333.88a13.1,13.1,0,0,1-11.72-7.32,20,20,0,0,1-2.13-9.31,21.23,21.23,0,0,1,1.19-7.19,18,18,0,0,1,.89-2.09,14.06,14.06,0,0,1-1.43-6.39,15.31,15.31,0,0,1,5.7-12.35,17.1,17.1,0,0,1,10.7-3.64,15.41,15.41,0,0,1,15.2,11.5,30.24,30.24,0,0,1,.7,7.35l0,7.48c0,1,0,1.87,0,2.59a10.66,10.66,0,0,1,2.7,7.18,11.1,11.1,0,0,1-3,7.62,13.56,13.56,0,0,1-6.08,3.52,19.08,19.08,0,0,1-5.88,1,12.68,12.68,0,0,1-3.29-.43A12.75,12.75,0,0,1,500.09,333.88Z" transform="translate(1673.22 -91.44)"/><path class="cls-3" d="M522.13,333.47a22.89,22.89,0,0,1-2.31-.14h-.12a24.7,24.7,0,0,0-2.84-.16h-.09a13.4,13.4,0,0,1-2.67.3,10.89,10.89,0,0,1-8-18.15v-.94c0-3.59,0-6.93-.1-9.93v-.11a10.92,10.92,0,0,1-.34-13.9,16.76,16.76,0,0,1-.87-5.44,16.18,16.18,0,0,1,2.1-8.19,12.15,12.15,0,0,1,10.51-6.33,12,12,0,0,1,10.47,6.27A16.1,16.1,0,0,1,530,285a16.81,16.81,0,0,1-1,5.77,10,10,0,0,1,1.24,4.66c0,3,.07,8.31.07,15.81l0,4.27a10.83,10.83,0,0,1,2.65,7.12A10.7,10.7,0,0,1,522.13,333.47Z" transform="translate(1673.22 -91.44)"/><path class="cls-3" d="M524.84,333.54a10.68,10.68,0,0,1-10.67-10.91,11.06,11.06,0,0,1,2.35-6.87c.09-2.21.13-4.87.13-7.89,0-2.13,0-3.58,0-4.55a10.68,10.68,0,0,1-2.27-6.56A10.81,10.81,0,0,1,525.4,286a14.46,14.46,0,0,0,2.73-.17,9.78,9.78,0,0,1,5.33.29,13.12,13.12,0,0,1,3.36-.43,13.38,13.38,0,0,1,9.83,4.4,16.4,16.4,0,0,1,4,7.41,30.73,30.73,0,0,1,.68,7.13s-.15,11.48-.15,11.48a11.07,11.07,0,0,1,2.12,6.55,10.64,10.64,0,0,1-10.71,10.81,30,30,0,0,1-3.52-.28l-1.06.16a10.28,10.28,0,0,1-1.57.12h-.88a11,11,0,0,1-1.65-.12,11.24,11.24,0,0,1-1.65.12,15.32,15.32,0,0,1-2.1-.14l-1.14-.16a11.21,11.21,0,0,0-1.77.12A12.16,12.16,0,0,1,524.84,333.54Z" transform="translate(1673.22 -91.44)"/><path class="cls-3" d="M553.39,333.47a22.89,22.89,0,0,1-2.31-.14H551a24.83,24.83,0,0,0-2.84-.16H548a12.78,12.78,0,0,1-2.67.3,10.89,10.89,0,0,1-8-18.15v-.94c0-3.59,0-6.93-.1-9.93v-.11a10.92,10.92,0,0,1-.34-13.9A17,17,0,0,1,536,285a16.12,16.12,0,0,1,2.1-8.2,11.88,11.88,0,0,1,21,0,16.13,16.13,0,0,1,2.13,8.24,16.58,16.58,0,0,1-1,5.77,10,10,0,0,1,1.24,4.66c0,3,.08,8.35.08,15.81l0,4.27a10.85,10.85,0,0,1-8.14,18Z" transform="translate(1673.22 -91.44)"/><path class="cls-3" d="M556.11,333.54a10.68,10.68,0,0,1-10.67-10.91,11.05,11.05,0,0,1,2.34-6.87c.09-2.21.14-4.87.14-7.89,0-2.13,0-3.57-.06-4.55a10.65,10.65,0,0,1-2.26-6.56A10.8,10.8,0,0,1,556.67,286a14.57,14.57,0,0,0,2.73-.17,9.82,9.82,0,0,1,2.14-.24,10.07,10.07,0,0,1,3.19.53,13,13,0,0,1,3.35-.43,13.39,13.39,0,0,1,9.84,4.41,16.39,16.39,0,0,1,4,7.4,30.73,30.73,0,0,1,.68,7.13s-.15,11.48-.15,11.48a11.07,11.07,0,0,1,2.12,6.55,10.64,10.64,0,0,1-10.7,10.81,30.07,30.07,0,0,1-3.53-.28l-1,.16a10.38,10.38,0,0,1-1.57.12h-.89a11.24,11.24,0,0,1-1.65-.12,11,11,0,0,1-1.64.12,15.36,15.36,0,0,1-2.11-.14l-1.14-.16a11.47,11.47,0,0,0-1.77.12A12.15,12.15,0,0,1,556.11,333.54Z" transform="translate(1673.22 -91.44)"/><path class="cls-3" d="M583.61,350.16c-7,0-11-2.92-13.11-5.37a16.73,16.73,0,0,1-4.2-11.19,18.41,18.41,0,0,1,1.92-8.32,16.23,16.23,0,0,1-.58-4.4,17.49,17.49,0,0,1,1.19-6.51,22.77,22.77,0,0,1-1.37-8.07A23.13,23.13,0,0,1,571.28,293a16,16,0,0,1,13.45-7.48,15.1,15.1,0,0,1,4,.53,11.65,11.65,0,0,1,4.45-.87,11.91,11.91,0,0,1,10.18,5.7,14.5,14.5,0,0,1,2.24,7.81,14.71,14.71,0,0,1-1.49,6.53,12.07,12.07,0,0,1-3.4,4.19,22.81,22.81,0,0,1-1.33,4.81q-.24.62-.51,1.2c3.18,3.12,5,7.63,5,13.06a23.06,23.06,0,0,1-4.61,14.42C596.69,346.23,591.92,350.16,583.61,350.16Z" transform="translate(1673.22 -91.44)"/><path class="cls-3" d="M627.9,333.72c-.32,0-.77,0-1.37,0a6.2,6.2,0,0,1-.62-.06c-2.62-.31-3.4-.33-3.48-.33-1.3,0-1.87.06-2,.07l-.24.05a14.94,14.94,0,0,1-2.75.28,10.68,10.68,0,0,1-10.67-10.91,10.92,10.92,0,0,1,3.27-7.85v-.23c.07-2.81.1-7.29.1-13.3s0-9.23-.12-11.06a11.08,11.08,0,0,1-3.19-7.85,10.63,10.63,0,0,1,10.67-10.82c.56,0,1.37,0,3.49.22.73.06,1.14.08,1.35.09l5.26-.24h.45a10.67,10.67,0,0,1,10.71,10.85,10.84,10.84,0,0,1-3.46,8c0,1.48-.09,3.93-.09,7.94,0,6.46.06,11.5.17,15,0,.43,0,.82.05,1.17a10.73,10.73,0,0,1,3.42,7.93A10.91,10.91,0,0,1,627.9,333.72Z" transform="translate(1673.22 -91.44)"/><path class="cls-3" d="M631,333.54a10.68,10.68,0,0,1-10.67-10.91,11.06,11.06,0,0,1,2.35-6.87c.09-2.21.13-4.87.13-7.89,0-2.13,0-3.57,0-4.55a10.65,10.65,0,0,1-2.26-6.56A10.8,10.8,0,0,1,631.53,286a14.46,14.46,0,0,0,2.73-.17,9.78,9.78,0,0,1,5.33.29,13.12,13.12,0,0,1,3.36-.43,13.37,13.37,0,0,1,9.83,4.41,16.31,16.31,0,0,1,4,7.4,30.73,30.73,0,0,1,.68,7.13s-.15,11.48-.15,11.48a11.07,11.07,0,0,1,2.12,6.55,10.64,10.64,0,0,1-10.7,10.81,29.92,29.92,0,0,1-3.53-.28l-1.06.16a10.28,10.28,0,0,1-1.57.12h-.88a11.4,11.4,0,0,0-3.3,0,15.08,15.08,0,0,1-2.09-.14l-1.15-.16a11.21,11.21,0,0,0-1.77.12A12.16,12.16,0,0,1,631,333.54Z" transform="translate(1673.22 -91.44)"/><path class="cls-3" d="M657.86,333.72a15.49,15.49,0,0,1-4.47-.65,10,10,0,0,1-1.32.09,10.36,10.36,0,0,1-9.87-7.28,19.58,19.58,0,0,1-.63-5.57c0-1.73-.06-3.8-.06-6.15a12.62,12.62,0,0,1,1-5,22.55,22.55,0,0,1-.66-5.59,19.43,19.43,0,0,1,3.43-11.55,14.49,14.49,0,0,1,12-6.41,13.53,13.53,0,0,1,4,.61c.33,0,.65,0,1,0a10.34,10.34,0,0,1,9.84,7.22,20.77,20.77,0,0,1,.72,5.38c.12,2,.18,3.62.18,5a12.92,12.92,0,0,1-.45,3.45l.15.42a21.22,21.22,0,0,1,1.08,6.7,24.29,24.29,0,0,1-1.16,7.43,18.65,18.65,0,0,1-4.42,7.49A14.41,14.41,0,0,1,657.86,333.72Z" transform="translate(1673.22 -91.44)"/><path class="cls-3" d="M674.05,333.79a14.24,14.24,0,0,1-12-6.39c-2.12-3.16-3-7.33-3-13.93q0-3.68,0-7.35a10.86,10.86,0,0,1-3.17-7.73,11,11,0,0,1,6-9.75,15.78,15.78,0,0,0,.46-1.55,23,23,0,0,1,1-3.24,10.43,10.43,0,0,1,9.65-6.53c4.94,0,9.94,3.53,10.47,10.29a10,10,0,0,1,5.07,9.88c-.32,2.79-.76,6.61-4.4,9.35a8.06,8.06,0,0,1-.73.51l0,2.9a10.53,10.53,0,0,1,5.61,9.49c0,4.86-3.13,8.21-4.16,9.31A14.59,14.59,0,0,1,674.05,333.79Z" transform="translate(1673.22 -91.44)"/><path class="cls-3" d="M689.23,333.47a22.89,22.89,0,0,1-2.31-.14h-.11a24.83,24.83,0,0,0-2.84-.16h-.1a13.4,13.4,0,0,1-2.67.3,10.89,10.89,0,0,1-8-18.15v-.94c0-3.59,0-6.93-.1-9.93v-.11a10.92,10.92,0,0,1-.34-13.9,17,17,0,0,1-.86-5.44,16.21,16.21,0,0,1,2.09-8.2,12.16,12.16,0,0,1,10.51-6.32,12,12,0,0,1,10.47,6.27,16.1,16.1,0,0,1,2.14,8.25,16.58,16.58,0,0,1-1,5.77,10,10,0,0,1,1.24,4.66c0,3,.07,8.31.07,15.81l0,4.27a10.84,10.84,0,0,1,2.66,7.12A10.7,10.7,0,0,1,689.23,333.47Z" transform="translate(1673.22 -91.44)"/><path class="cls-3" d="M699.53,333.79a14.22,14.22,0,0,1-12-6.39c-2.13-3.16-3-7.33-3-13.93,0-2.45,0-4.91,0-7.36a10.88,10.88,0,0,1-3.17-7.72,11,11,0,0,1,6-9.75,15.78,15.78,0,0,0,.46-1.55,23.23,23.23,0,0,1,.95-3.2,10.44,10.44,0,0,1,9.66-6.57c4.94,0,9.94,3.53,10.48,10.29A10,10,0,0,1,714,297.5c-.32,2.78-.76,6.59-4.36,9.32-.26.2-.52.37-.77.53l0,2.9a10.55,10.55,0,0,1,5.62,9.49c0,4.86-3.13,8.21-4.16,9.31A14.6,14.6,0,0,1,699.53,333.79Z" transform="translate(1673.22 -91.44)"/><path class="cls-3" d="M712.57,333.69c-2.44,0-14.61-.91-14.61-19V305c0-.5,0-.95,0-1.36a10.86,10.86,0,0,1,8.61-17.26c2.32,0,3.36,0,3.77-.05a9.85,9.85,0,0,1,1.62-.14,10,10,0,0,1,2.78.39,17,17,0,0,1,2.6-.17,34.3,34.3,0,0,0,3.67-.17c.34,0,.68,0,1,0a10,10,0,0,1,10,9.42c0,.53.09,1.52.09,14,0,2.88,0,4.93,0,6.38a11.07,11.07,0,0,1,1.9,6.26,10.7,10.7,0,0,1-10.72,10.91,14.14,14.14,0,0,1-1.52-.09h-2.08c-.41,0-.81.05-1.19.05a10,10,0,0,1-1.65-.13A13.57,13.57,0,0,1,712.57,333.69Z" transform="translate(1673.22 -91.44)"/><path class="cls-3" d="M733.87,333.79a14.22,14.22,0,0,1-12-6.39c-2.13-3.16-3-7.32-3-13.93q0-3.68,0-7.36a10.88,10.88,0,0,1-3.17-7.72,11,11,0,0,1,6-9.75,15.78,15.78,0,0,0,.46-1.55,22.67,22.67,0,0,1,1-3.24,10.42,10.42,0,0,1,9.64-6.53c4.94,0,9.94,3.53,10.48,10.29a10,10,0,0,1,5.06,9.88c-.32,2.79-.76,6.61-4.39,9.35-.25.19-.5.36-.74.51l0,2.9a10.54,10.54,0,0,1,5.62,9.49c0,4.86-3.13,8.21-4.16,9.31A14.62,14.62,0,0,1,733.87,333.79Z" transform="translate(1673.22 -91.44)"/><path class="cls-3" d="M748.79,333.82c-6.15,0-11.47-3.35-14.6-9.19a29.16,29.16,0,0,1-3.27-13.92,31.6,31.6,0,0,1,3.66-15.54c4.57-8.22,11.18-9.45,14.72-9.45,6.25,0,11.44,3.58,14.25,9.82a28.23,28.23,0,0,1,2.64,11.56A12.27,12.27,0,0,1,764.8,313a11.41,11.41,0,0,1,1,4.71,14.67,14.67,0,0,1-2.53,7.66,17.39,17.39,0,0,1-6.21,6.17A16.37,16.37,0,0,1,748.79,333.82Zm7.52-30.68Z" transform="translate(1673.22 -91.44)"/><path class="cls-1" d="M43.13,101.44c43.55,3.4,84.25-1.51,125.13,4.31,50.25,7.15,91.5,70.84,88.17,123.55-4.2,66.52-44.58,112.33-103.3,118-34.89,3.38-69.73-2.46-104.54,1.11-2.19.23-4.69.37-5.54-2.12s1.65-4,3.05-5.64c2.71-3.15,5.45-6.25,8.22-9.33,13.09-14.54,23.93-33.54,40-42.15,15.83-8.46,35.27-2,53.12-2.52,29.81-.85,54.64-26.7,55.2-58.21.65-36-20.85-62.58-52.67-64.2-15.1-.77-30.27-.27-45.39.06-6.06.13-10.63-1.9-14.93-6.93C74.59,139.75,58.18,123.48,43.13,101.44Z" transform="translate(1673.22 -91.44)"/><path class="cls-2" d="M96.22,284.42C84.3,271.75,73.74,261,63.71,249.68c-6.62-7.47-18.66-13.64-18.18-22.91.4-7.87,11.11-15.22,17.55-22.48,10.57-11.94,21.37-23.61,33.14-36.57Z" transform="translate(1673.22 -91.44)"/><path class="cls-1" d="M280.83,191.53c0-12.35.05-24.7,0-37.05,0-5.92.66-12,4.6-12,9.09-.18,18.33-3.06,27.23,2.57,9.93,6.28,14.83,18.71,14.87,37.19.1,51-6,60.93-35.52,61.28-8.58.1-12.13-4.16-11.29-19.36C281.32,213.34,280.83,202.4,280.83,191.53Zm10.57-.61c0,7.38-.07,14.77,0,22.15.06,5.2,1,9.65,4.19,11.62,10,6.15,20.88-6.27,21.39-24.64.16-5.89.22-11.83,0-17.72-.49-15.32-6.89-22.22-18.49-22.46-10.14-.21-6.5,12.15-7.12,20.71C291.17,184,291.38,187.47,291.4,190.92Z" transform="translate(1673.22 -91.44)"/><path class="cls-1" d="M386.44,244.47c-1.45-.4-2.53-1.11-3.54-.9-24.39,5-27.32-26.34-24.36-54.35,1.4-13.31,10.8-23.44,19.87-23.43,9.38,0,18.39,10.52,19.85,25.29a260.26,260.26,0,0,1-.16,54.61c-2.23,19.53-16.83,30.45-26.63,21.3-2.84-2.64-4.52-6.12-3.71-11.83.9-6.31,3.35-4.54,6.05-3.77C378.32,252.67,383,252.87,386.44,244.47Zm2-39.93c-.11-13.79-3.69-21.13-10.3-20.41-7.74.83-9.95,9.8-9.92,21.45s2,20.69,10,20.94C385.27,226.74,388.52,219.68,388.41,204.54Z" transform="translate(1673.22 -91.44)"/><path class="cls-1" d="M745.46,243.9c-3.26,0-5.23-.17-7.18,0-10.57,1-17.86-6.37-21.1-21.56-3.86-18-1.55-38.6,5.37-47.79,8.4-11.17,18.71-11.73,27.14-1.33,4.68,5.78,7.51,13.31,7.43,23.7-.11,14.36-.34,28.75,0,43.09.67,26.12-18.27,34-28.07,26.5-3.24-2.48-3.67-7.53-2.78-12.57.92-5.25,3.25-3.64,5.63-2.74C736.51,253,741,252.68,745.46,243.9Zm1.3-38.27c0-14.41-3.7-22.39-10.42-21.59-7.5.9-10,9.58-10.17,21.15C726,218.93,730,226.8,737,226.43,744.85,226,747.14,217.62,746.76,205.63Z" transform="translate(1673.22 -91.44)"/><path class="cls-1" d="M483.86,216.73c3.63,11.67,8.49,12,14,7.9,4.26-3.17,10-7.49,11.85,1.42,1.71,8.2-4.37,13-8.5,15.61-12.73,8.16-29.6,3-29-33.07.58-34.22,11.42-50.43,28.26-39.68,6.5,4.15,10.42,11.7,10,24.56-.44,13.08-5,19.47-11.87,21.41C494,216.19,489.22,216.11,483.86,216.73Zm-.22-19.06c2.7.26,5,.56,7.24.67,3.2.16,6.45-.15,8.51-5.05,1-2.28-.17-4.58-1.34-6.22-3.09-4.3-6.25-4-9.55-.66C486.26,188.64,484,190.7,483.64,197.67Z" transform="translate(1673.22 -91.44)"/><path class="cls-1" d="M558.59,214.76c0,8.41,1.36,17.77-.34,25-2.26,9.63-7.6-1.09-12.16,1.82-7.76,5-16.84,6.12-22.9-7.36-5.92-13.16-7.47-28.51-4.43-44.73,2.81-14.93,13.36-25.88,22.4-23.31,11.3,3.22,17.49,15.1,17.57,33.75,0,4.94,0,9.89,0,14.84Zm-10.25-8.65c.72-12.22-1.69-20.7-9.26-21.78-6.46-.93-11.09,8.24-11.2,21.13-.1,13.39,4,21.68,10.91,21.23C546.52,226.19,549.08,218.16,548.34,206.11Z" transform="translate(1673.22 -91.44)"/><path class="cls-1" d="M636.27,215.8c0,5.44.09,10.89,0,16.32-.11,5,1.15,11.66-4.2,11-4.27-.49-6.13-4.35-6.1-11.47,0-8.9-.16-17.82,0-26.71.24-11.64-2.44-20.27-9.4-20.34-6.76-.07-10.05,7.51-9.62,19.75.34,9.85.1,19.78,0,29.67,0,4.18.8,9.34-3.49,9.12-3.52-.17-6.66-1.43-6.72-8.43-.13-14.81-.63-29.82.55-44.38,1.23-15,10.82-25.22,20-24.05,11,1.41,18.09,12.54,18.84,30.19C636.49,202.91,636.26,209.37,636.27,215.8Z" transform="translate(1673.22 -91.44)"/><path class="cls-1" d="M707.17,214.45c0,5.94.2,11.92-.07,17.82-.2,4.18,1.72,10.64-3.28,10.88-4.23.21-6.66-3.56-6.94-10.3-.38-9.36-.37-18.82-.1-28.21.34-11.8-2.16-20-9.36-20-6.72-.05-9.3,8.36-9.49,18.91-.18,10.39,0,20.8-.09,31.2,0,3.66.79,8.32-3,8.44-3.11.1-5.77-.43-6.38-7-1.58-17.26-2.3-34.58,1-51.39,2.47-12.56,12.07-20.31,20.73-17.9,9.93,2.77,16.09,12.37,16.77,26.83.33,6.89.06,13.86.06,20.79Z" transform="translate(1673.22 -91.44)"/><path class="cls-2" d="M442.59,181.12c0,9.87.13,19.75,0,29.61s2.45,14.51,8.22,14.16a80.5,80.5,0,0,1,10.3.21c4.44.31,4.53,5.9,4.69,11.59.19,6.77-2.37,6.27-5.07,6.56-24.74,2.66-28.61-3.21-29.2-45.6-.19-13.81-.05-27.63.08-41.45.07-7.27.73-14.29,6.37-14.19,6.13.1,4.46,7.92,4.48,14,0,8.38,0,16.77,0,25.16Z" transform="translate(1673.22 -91.44)"/><path class="cls-1" d="M569,212.31c0-6.4-.23-12.83,0-19.19.67-15.4,6.17-24.28,15-24.25,2.21,0,5.64-2.5,5.77,4.92.1,5.31.69,11.6-3.81,12.58-6.17,1.34-6.82,8.5-6.7,17.1.14,9.83.13,19.69,0,29.53-.06,4.36,1.31,10.36-3.62,10.23-4.16-.12-6.56-3-6.69-10.25C568.9,226.09,569,219.2,569,212.31Z" transform="translate(1673.22 -91.44)"/><path class="cls-1" d="M348.24,208.59c0,8.42.08,16.85,0,25.27,0,4,1.11,9.33-3.28,9.34-3.66,0-6.74-2.13-6.86-8.47-.36-19.3-.3-38.62-.08-57.93.07-5.93,2.87-8,6.09-8.14,4.41-.19,4.14,5.23,4.15,10.21C348.27,188.78,348.24,198.69,348.24,208.59Z" transform="translate(1673.22 -91.44)"/><path class="cls-1" d="M420.21,207.37q0,13.33,0,26.66c0,4.67-.1,9.2-3.86,9.14-3.06-.06-6.07-.95-6.12-7.53-.15-19.74-.11-39.49,0-59.24,0-6.6,2.86-7.7,6-7.68,3.64,0,4,4.2,4,9C420.21,187.62,420.22,197.49,420.21,207.37Z" transform="translate(1673.22 -91.44)"/><path class="cls-1" d="M657.1,206.08c0,9.34.07,18.68,0,28,0,4.06.94,9.22-3.39,9.17-3.26,0-6.41-1.87-6.52-7.16-.44-20.1-.49-40.26-.08-60.36.1-5.15,3.3-7.21,6.56-7.08,4.14.17,3.39,5.22,3.43,9.39C657.16,187.4,657.11,196.74,657.1,206.08Z" transform="translate(1673.22 -91.44)"/><path class="cls-1" d="M420.12,148.45c-.11,9.27-2.51,12.68-6.44,13.16-3.17.38-3.51-3.31-3.65-7.72-.27-7.8,2.33-10.6,6.17-11C419.16,142.53,420,146.12,420.12,148.45Z" transform="translate(1673.22 -91.44)"/><path class="cls-1" d="M657,151.55c.39,8.09-3,9.59-6.52,10-2.73.33-3.95-2.52-3.86-7.41.13-7.38,2.74-10.35,6.44-11.17S657.22,146.51,657,151.55Z" transform="translate(1673.22 -91.44)"/><path class="cls-1" d="M337.78,154.52c.21-8.7,3.32-11.07,6.85-11.59,3.73-.55,3.66,4.46,3.58,9-.14,8-3.52,9.42-7,9.45C338.48,161.45,337.29,158.12,337.78,154.52Z" transform="translate(1673.22 -91.44)"/><path class="cls-2" d="M301.18,284.62c.25-.54.52-1.15.8-1.82s.59-1.22.81-1.22a.44.44,0,0,1,.47.31,11.24,11.24,0,0,1,.18,1.94l.36,9.79,0,1.25c0,.84-.19,1.26-.58,1.26s-.46-.35-.61-1a35.86,35.86,0,0,0-2.68-7.38q-1.92-4.06-4.86-4.06a4.31,4.31,0,0,0-3.65,2.18,17.26,17.26,0,0,0-2.3,6,43.44,43.44,0,0,0-.82,9.1q0,9.06,2.3,14.4c1.53,3.57,3.43,5.35,5.72,5.35q3.7,0,6.8-7.78c.25-.62.49-.94.72-.94s.58.34.58,1q0,2.07-2.85,6.58T294.47,324q-5.69,0-9-6.08t-3.3-15a33.25,33.25,0,0,1,3.33-15.35q3.32-6.51,8.39-6.51Q297.49,281.14,301.18,284.62Z" transform="translate(1673.22 -91.44)"/><path class="cls-2" d="M323.85,309a20.76,20.76,0,0,1-2.48,10.25q-2.47,4.49-6.29,4.48-3.51,0-5.9-3.76t-2.39-10q0-6.37,2.52-10.3c1.69-2.63,3.73-3.94,6.15-3.94s4.46,1.24,6,3.72A17.61,17.61,0,0,1,323.85,309Zm-5,2.15a40.23,40.23,0,0,0-1-9.31c-.66-2.78-1.6-4.16-2.83-4.16s-1.92,1-2.51,2.9a28.87,28.87,0,0,0-.89,8.15,36.24,36.24,0,0,0,1,9.37q1,3.66,2.76,3.66c1.15,0,2-1,2.59-2.92A27.72,27.72,0,0,0,318.86,311.14Z" transform="translate(1673.22 -91.44)"/><path class="cls-2" d="M332.93,300.49a13.62,13.62,0,0,1,2.64-3.66,4.06,4.06,0,0,1,2.71-1.2,3.86,3.86,0,0,1,2.06.69,8.29,8.29,0,0,1,2.37,3.23,11.14,11.14,0,0,1,2.68-3,4.73,4.73,0,0,1,2.82-1,3.81,3.81,0,0,1,3.63,2.32,16.57,16.57,0,0,1,1.14,7l-.09,10.61a26.51,26.51,0,0,0,.25,5.17,1.75,1.75,0,0,0,1.37.95.81.81,0,0,1,.62.85c0,.65-.24,1-.74,1l-.36,0a19.94,19.94,0,0,0-3.3-.25,18.57,18.57,0,0,0-2.35.18c-.56.07-.89.1-1,.1-.61,0-.91-.29-.91-.88s.2-.82.6-.9a2.13,2.13,0,0,0,1.27-.63,10.58,10.58,0,0,0,.36-2.91c.08-1.68.13-4.52.13-8.52q0-5.5-.17-7.54a8.1,8.1,0,0,0-.74-3.12,1.68,1.68,0,0,0-1.45-1.09,2.16,2.16,0,0,0-1.58,1,13.27,13.27,0,0,0-1.66,3.09,132,132,0,0,0-.56,14,18.3,18.3,0,0,0,.33,4.68,1.82,1.82,0,0,0,1.48,1,.74.74,0,0,1,.69.81c0,.65-.29,1-.87,1-.13,0-.59,0-1.39-.14-1.1-.11-1.88-.17-2.33-.17a19.21,19.21,0,0,0-2.79.24,3.8,3.8,0,0,1-.63.07c-.54,0-.8-.3-.8-.91a.81.81,0,0,1,.78-.91c.68-.08,1.12-.74,1.3-2s.27-5.61.27-13.08a28.07,28.07,0,0,0-.47-6.36c-.31-1.16-.83-1.74-1.54-1.74q-1.85,0-2.91,3.39t-1.07,13.09a25.25,25.25,0,0,0,.34,5.58,1.42,1.42,0,0,0,1.26,1.11.72.72,0,0,1,.68.82c0,.67-.24,1-.74,1a2.15,2.15,0,0,1-.51-.1,16.8,16.8,0,0,0-3.22-.21,15.65,15.65,0,0,0-3.13.24,4,4,0,0,1-.65.07c-.4,0-.59-.3-.59-.91s.22-.86.67-.91c.72-.06,1.16-.28,1.33-.66a12,12,0,0,0,.38-3.15q.14-2.6.13-9.75,0-5.6-.08-7a4.25,4.25,0,0,0-.6-2.17,1.74,1.74,0,0,0-1.42-.79c-.49,0-.74-.3-.74-.84s.25-.84.74-.88,1.59-.2,2.84-.42a19.29,19.29,0,0,1,3.26-.33,14.79,14.79,0,0,1,.22,3C332.92,299,332.92,299.61,332.93,300.49Z" transform="translate(1673.22 -91.44)"/><path class="cls-2" d="M362.9,299.7a9.45,9.45,0,0,1,2.08-2.89,3.49,3.49,0,0,1,2.33-1q2.54,0,4.82,3.87a19.24,19.24,0,0,1,2.29,9.92,20.26,20.26,0,0,1-2.27,9.84q-2.28,4.15-5.38,4.15a4.42,4.42,0,0,1-2.13-.55,7.4,7.4,0,0,1-2-1.64q0,12.51.4,14.6c.27,1.39,1,2.12,2.15,2.21.43,0,.64.3.64.84a.75.75,0,0,1-.85.85q-.49,0-1.5-.09a35.94,35.94,0,0,0-3.69-.23,19.47,19.47,0,0,0-2.59.22,8.92,8.92,0,0,1-.94.1c-.63,0-.94-.27-.94-.82s.33-.8,1-.91c1.1-.18,1.75-1.35,2-3.49s.33-9.47.33-22l-.11-10.22a11.27,11.27,0,0,0-.41-3.86,1.75,1.75,0,0,0-1.31-1,.78.78,0,0,1-.69-.87c0-.61.26-.91.78-.91,2.13,0,4.14-.09,6-.25l0,3.15C362.93,298.88,362.92,299.2,362.9,299.7Zm6.42,11.06a31.35,31.35,0,0,0-1-8.85c-.64-2.1-1.49-3.15-2.52-3.15s-1.86,1.12-2.4,3.35a46.43,46.43,0,0,0-.81,10.09c0,3.55.26,6,.78,7.31a2.63,2.63,0,0,0,2.48,2c1.15,0,2-.9,2.58-2.69A28.38,28.38,0,0,0,369.32,310.76Z" transform="translate(1673.22 -91.44)"/><path class="cls-2" d="M382.78,296.22c.06,2.16.09,5.09.09,8.81q0,8.48.09,10.84a8.77,8.77,0,0,0,.71,3.56c.42.79.89,1.19,1.42,1.19A2.61,2.61,0,0,0,387,319.4a7.89,7.89,0,0,0,1.43-3.2,31.58,31.58,0,0,0,.46-6.46l0-6.93a24.63,24.63,0,0,0-.17-3.64,1.13,1.13,0,0,0-1.17-.94c-.72-.06-1.08-.39-1.08-1,0-.36.08-.58.26-.68a4,4,0,0,1,1.38-.14,45.72,45.72,0,0,0,4.69-.22q.07,1.23.07,13.39,0,9.79.11,10.68c.07.6.46.95,1.18,1,.42.09.63.39.63.91s-.24.91-.73.91l-.45,0a10.24,10.24,0,0,0-1.19-.06c-1.61,0-2.49,0-2.66,0l-.49,0c-.23,0-.37-.07-.42-.2a4.45,4.45,0,0,1-.09-1.21c0-1.09.05-2.19.13-3.29a13.43,13.43,0,0,1-2.63,3.95,4.17,4.17,0,0,1-2.91,1.31q-4.61,0-4.61-9V305a42.5,42.5,0,0,0-.21-5.88,1.39,1.39,0,0,0-1.09-1.08c-.53-.12-.8-.39-.8-.81s.24-.85.71-.85A35.37,35.37,0,0,0,382.78,296.22Z" transform="translate(1673.22 -91.44)"/><path class="cls-2" d="M404.13,296.13c.73-.06,1.86-.1,3.38-.1a4,4,0,0,1,1.7.32,7.67,7.67,0,0,1-.48,2.51,34.33,34.33,0,0,1-4.6.59l-.2,13.83a40.1,40.1,0,0,0,.17,4.33,5.49,5.49,0,0,0,.79,2.32,1.83,1.83,0,0,0,1.59.94c.56,0,1.34-.51,2.37-1.54a.7.7,0,0,1,.4-.22c.23,0,.34.21.34.63a4.4,4.4,0,0,1-1.46,2.48,4.57,4.57,0,0,1-3.44,1.57,4.17,4.17,0,0,1-3.66-2c-.89-1.31-1.33-4.1-1.33-8.34q0-7,.14-14a14.55,14.55,0,0,1-2.53-.15.84.84,0,0,1-.74-.91c0-.42.28-.76.85-1a7.13,7.13,0,0,0,3-2.38,15.48,15.48,0,0,0,2.27-5.49,18.59,18.59,0,0,1,.51-1.86c.1-.22.22-.33.39-.33.35,0,.53.5.53,1.5Z" transform="translate(1673.22 -91.44)"/><path class="cls-2" d="M416.59,308.86c0,.61,0,1.05,0,1.32a20,20,0,0,0,1.25,7.54q1.26,3.09,3.4,3.09c1.45,0,2.89-1.1,4.3-3.29.29-.44.5-.66.62-.66.31,0,.47.29.47.88a6.13,6.13,0,0,1-1.09,2.47,7.57,7.57,0,0,1-2.66,2.7,6.37,6.37,0,0,1-3.25.91c-2.47,0-4.39-1.3-5.79-3.91a19.25,19.25,0,0,1-2.08-9.2A21.74,21.74,0,0,1,414.14,300q2.4-4.3,6-4.31,3.38,0,5.13,3.92A18.13,18.13,0,0,1,427,307.1c0,.76-.12,1.21-.35,1.35a6,6,0,0,1-2.22.22Zm.11-2.29,3.1.06c1.36,0,2.19-.16,2.5-.5a3.13,3.13,0,0,0,.46-2,11.31,11.31,0,0,0-.85-4.54c-.56-1.32-1.24-2-2-2Q417.1,297.57,416.7,306.57Z" transform="translate(1673.22 -91.44)"/><path class="cls-2" d="M435.07,301.93a14.75,14.75,0,0,1,2.08-4.74,3.31,3.31,0,0,1,2.62-1.56A2.48,2.48,0,0,1,442,297a6.63,6.63,0,0,1,.82,3.45,5.9,5.9,0,0,1-.59,2.77c-.39.76-.87,1.15-1.43,1.15a1.24,1.24,0,0,1-1-.57,7.24,7.24,0,0,1-.89-2q-.65-2.07-1.14-2.07c-.45,0-.95.79-1.52,2.35s-.85,4.61-.85,9.12c0,5.7.11,8.86.34,9.5a1.39,1.39,0,0,0,1.47,1c.66,0,1,.31,1,.94s-.32.87-1,.87a9.78,9.78,0,0,1-1.58-.17,12.37,12.37,0,0,0-1.77-.14,28,28,0,0,0-3.55.22l-.86.09c-.51,0-.76-.33-.76-1a.83.83,0,0,1,.88-.93,1.37,1.37,0,0,0,1.21-.7,7.14,7.14,0,0,0,.35-2.81l.07-7.83c0-1.58,0-3.56-.11-5.91s-.14-3.77-.2-4.22a2.62,2.62,0,0,0-.46-1.2,1.42,1.42,0,0,0-1-.63,1.7,1.7,0,0,1-.83-.3,1,1,0,0,1-.17-.7c0-.57.3-.86.91-.88a41.4,41.4,0,0,0,5.66-.75Z" transform="translate(1673.22 -91.44)"/><path class="cls-2" d="M454.34,281.45q9.39.44,13.9.44,3.42,0,7.53-.34c1-.09,1.78-.13,2.41-.13l1.21,0c.09.86.2,2.63.33,5.3l.27,5c0,.81-.2,1.22-.59,1.22s-.59-.5-.87-1.51a17.85,17.85,0,0,0-1.76-4.35,5.54,5.54,0,0,0-2.5-2.42,13.19,13.19,0,0,0-4.7-.6q-.29,4.8-.29,12t.16,14.22q.17,6.85.4,8.26a3,3,0,0,0,3.44,3,.77.77,0,0,1,.7.88c0,.58-.2.88-.61.88l-.51,0-3.75-.16c-2.92,0-4.7,0-5.33.06l-2.28.16-1.12-.06c-.28-.11-.42-.37-.42-.79,0-.61.23-.91.69-.91a2.77,2.77,0,0,0,2.42-1.16,7.47,7.47,0,0,0,1-3.68c.12-1.69.19-5.34.19-11q0-13.33-.47-21.71a15.74,15.74,0,0,0-4.32.43,5.2,5.2,0,0,0-2.56,2.32,16.7,16.7,0,0,0-2,4.91c-.2.79-.44,1.19-.7,1.19s-.62-.32-.62-.94c0-.19.08-1.57.23-4.13S454.14,283.15,454.34,281.45Z" transform="translate(1673.22 -91.44)"/><path class="cls-2" d="M487.26,301.93a15.21,15.21,0,0,1,2.08-4.74,3.32,3.32,0,0,1,2.63-1.56,2.49,2.49,0,0,1,2.2,1.38,6.72,6.72,0,0,1,.82,3.45,6,6,0,0,1-.59,2.77c-.39.76-.87,1.15-1.44,1.15a1.26,1.26,0,0,1-1-.57,7.61,7.61,0,0,1-.88-2q-.66-2.07-1.14-2.07c-.45,0-1,.79-1.52,2.35s-.85,4.61-.85,9.12c0,5.7.11,8.86.33,9.5a1.4,1.4,0,0,0,1.48,1c.66,0,1,.31,1,.94s-.32.87-1,.87a9.68,9.68,0,0,1-1.57-.17,12.6,12.6,0,0,0-1.77-.14,27.85,27.85,0,0,0-3.55.22l-.87.09c-.5,0-.76-.33-.76-1a.84.84,0,0,1,.89-.93,1.38,1.38,0,0,0,1.21-.7,7.2,7.2,0,0,0,.34-2.81l.08-7.83c0-1.58,0-3.56-.11-5.91s-.14-3.77-.2-4.22a2.62,2.62,0,0,0-.46-1.2,1.42,1.42,0,0,0-1-.63,1.69,1.69,0,0,1-.82-.3,1,1,0,0,1-.17-.7c0-.57.3-.86.9-.88a41.49,41.49,0,0,0,5.67-.75Z" transform="translate(1673.22 -91.44)"/><path class="cls-2" d="M504.65,320.18a10.87,10.87,0,0,1-2.26,2.78,3.68,3.68,0,0,1-2.3.92,3.11,3.11,0,0,1-2.85-1.93,10.08,10.08,0,0,1-1-4.7,11.28,11.28,0,0,1,.6-3.81,7.48,7.48,0,0,1,1.5-2.61,16.41,16.41,0,0,1,3-2.22,12.58,12.58,0,0,0,2.32-1.68,4.83,4.83,0,0,0,1-1.79,9.85,9.85,0,0,0,.39-3,7.65,7.65,0,0,0-.59-3.3,1.82,1.82,0,0,0-1.64-1.23,1.31,1.31,0,0,0-1.28.78,9,9,0,0,0-.57,2.59c-.28,2.38-1,3.56-2.23,3.56a1.53,1.53,0,0,1-1.27-.75,3.76,3.76,0,0,1-.52-2.17,5.36,5.36,0,0,1,1.89-4.49,7,7,0,0,1,4.51-1.49,5.53,5.53,0,0,1,3.69,1.19,5.23,5.23,0,0,1,1.81,2.76,21.35,21.35,0,0,1,.4,4.89l0,7.43q0,5.86.22,7.53c.15,1.11.48,1.66,1,1.66l.29,0a4.2,4.2,0,0,1,.49-.07.65.65,0,0,1,.74.73,1.12,1.12,0,0,1-.31.8,5.47,5.47,0,0,1-1.85.83,9.32,9.32,0,0,1-2.8.5,1.81,1.81,0,0,1-1.71-.82A7,7,0,0,1,504.65,320.18Zm.24-12.57a9.69,9.69,0,0,1-2.08,2.42,8.44,8.44,0,0,0-2,2.45,7.77,7.77,0,0,0-.51,3.17,8.31,8.31,0,0,0,.53,3.35c.36.77.8,1.15,1.32,1.15.69,0,1.35-.56,1.95-1.68s.9-3.1.9-5.93C505,311.66,505,310,504.89,307.61Z" transform="translate(1673.22 -91.44)"/><path class="cls-2" d="M520.23,295.6q.07,4.38.07,15.64l0,6.75a6.23,6.23,0,0,0,.39,2.72,1.88,1.88,0,0,0,1.27.91c.68.15,1,.49,1,1s-.26.84-.79.84q-.39,0-1.32-.09a35.12,35.12,0,0,0-3.95-.22,11.86,11.86,0,0,0-2,.17,3.9,3.9,0,0,1-.81.14c-.54,0-.8-.28-.8-.84s.35-.87,1.05-1A1.68,1.68,0,0,0,515.9,320c.11-.93.17-2.82.17-5.66,0-3.68,0-7.06-.1-10.14a27.47,27.47,0,0,0-.37-5.29,1.73,1.73,0,0,0-1.41-.88c-.6-.1-.89-.4-.89-.91s.3-.79.9-.88l.38-.06ZM520,285a6.29,6.29,0,0,1-.77,3.18,1.94,1.94,0,0,1-3.69,0,7.07,7.07,0,0,1,0-6.38,1.95,1.95,0,0,1,3.69,0A6.27,6.27,0,0,1,520,285Z" transform="translate(1673.22 -91.44)"/><path class="cls-2" d="M531.07,301.71a14.73,14.73,0,0,1,2.66-4.52,4.26,4.26,0,0,1,3.09-1.5,3.39,3.39,0,0,1,2.51,1.22,6.41,6.41,0,0,1,1.55,2.92,21.78,21.78,0,0,1,.41,4.8l-.16,12.51a13.75,13.75,0,0,0,.27,3.42,1.6,1.6,0,0,0,1.14,1.1.94.94,0,0,1,.72,1c0,.54-.24.81-.71.81s-1.27-.08-2.62-.25q-.7-.06-1.14-.06c-.28,0-1.07.11-2.39.31h-.88q-.75,0-.75-.84a.88.88,0,0,1,.67-.91,2.05,2.05,0,0,0,1-.72c.24-.34.4-2,.48-4.93s.12-5.89.12-8.8a32.91,32.91,0,0,0-.44-6.62c-.3-1.2-.86-1.79-1.7-1.79q-1.53,0-2.85,3.9t-1.31,12a40.14,40.14,0,0,0,.18,4.54,4.64,4.64,0,0,0,.45,1.78,2.08,2.08,0,0,0,1.11.61c.34.1.51.4.51.91s-.25.87-.75.87a5.67,5.67,0,0,1-.79-.05c-1.16-.17-1.79-.26-1.88-.26a24.69,24.69,0,0,0-4.27.31,1.7,1.7,0,0,1-.44.07c-.44,0-.67-.31-.67-.91s.2-.83.6-.91a1.65,1.65,0,0,0,1.25-.88,17.25,17.25,0,0,0,.48-4.32q.15-3.63.15-8.65a65.53,65.53,0,0,0-.27-7.93,3.21,3.21,0,0,0-1.3-2.21c-.5-.34-.74-.66-.74-1,0-.51.35-.76,1.06-.76a23.78,23.78,0,0,0,4.87-.4A29.1,29.1,0,0,1,531.07,301.71Z" transform="translate(1673.22 -91.44)"/><path class="cls-2" d="M551.49,295.6q.07,4.38.08,15.64l-.06,6.75a6.23,6.23,0,0,0,.39,2.72,1.88,1.88,0,0,0,1.28.91c.67.15,1,.49,1,1s-.27.84-.8.84q-.37,0-1.32-.09a35.08,35.08,0,0,0-3.94-.22,12.08,12.08,0,0,0-2,.17,3.8,3.8,0,0,1-.81.14c-.53,0-.8-.28-.8-.84s.35-.87,1.05-1a1.7,1.7,0,0,0,1.56-1.62c.11-.93.16-2.82.16-5.66q0-5.52-.1-10.14a27.47,27.47,0,0,0-.37-5.29,1.73,1.73,0,0,0-1.41-.88c-.59-.1-.89-.4-.89-.91s.3-.79.91-.88l.38-.06Zm-.25-10.6a6.29,6.29,0,0,1-.77,3.18,1.94,1.94,0,0,1-3.68,0,7.07,7.07,0,0,1,0-6.38,1.94,1.94,0,0,1,3.68,0A6.27,6.27,0,0,1,551.24,285Z" transform="translate(1673.22 -91.44)"/><path class="cls-2" d="M562.33,301.71a14.54,14.54,0,0,1,2.67-4.52,4.24,4.24,0,0,1,3.08-1.5,3.41,3.41,0,0,1,2.52,1.22,6.39,6.39,0,0,1,1.54,2.92,21.18,21.18,0,0,1,.41,4.8l-.16,12.51a13.75,13.75,0,0,0,.27,3.42,1.6,1.6,0,0,0,1.14,1.1.94.94,0,0,1,.72,1c0,.54-.23.81-.7.81s-1.27-.08-2.62-.25c-.48,0-.85-.06-1.14-.06s-1.08.11-2.39.31h-.89c-.49,0-.74-.28-.74-.84a.87.87,0,0,1,.67-.91,2,2,0,0,0,1-.72c.25-.34.41-2,.48-4.93s.12-5.89.12-8.8a32.91,32.91,0,0,0-.44-6.62c-.3-1.2-.86-1.79-1.69-1.79q-1.54,0-2.85,3.9t-1.31,12a40.14,40.14,0,0,0,.18,4.54,4.9,4.9,0,0,0,.44,1.78,2.12,2.12,0,0,0,1.11.61c.34.1.51.4.51.91s-.25.87-.74.87a5.81,5.81,0,0,1-.8-.05c-1.16-.17-1.78-.26-1.88-.26a24.69,24.69,0,0,0-4.27.31,1.7,1.7,0,0,1-.43.07c-.45,0-.67-.31-.67-.91s.2-.83.59-.91a1.65,1.65,0,0,0,1.25-.88,16.75,16.75,0,0,0,.48-4.32q.15-3.63.15-8.65a65.53,65.53,0,0,0-.27-7.93,3.17,3.17,0,0,0-1.3-2.21c-.49-.34-.74-.66-.74-1,0-.51.36-.76,1.07-.76a23.67,23.67,0,0,0,4.86-.4A28.45,28.45,0,0,1,562.33,301.71Z" transform="translate(1673.22 -91.44)"/><path class="cls-2" d="M589.43,298.48q2.15-3.25,3.73-3.26a2,2,0,0,1,1.75,1.06,4.51,4.51,0,0,1,.67,2.45,4.68,4.68,0,0,1-.47,2.12,1.41,1.41,0,0,1-1.28.95q-1.14,0-1.65-2.13c-.23-.94-.45-1.41-.67-1.41s-.73.5-1.43,1.51a15,15,0,0,1,1,5.39,14.54,14.54,0,0,1-1,5.41,7.92,7.92,0,0,1-2.37,3.5,8.84,8.84,0,0,1-3.93,1.44c-1.46.23-2.35.62-2.66,1.16a3.64,3.64,0,0,0-.49,1.88,1.55,1.55,0,0,0,1,1.63,25.21,25.21,0,0,0,5.41.6q6.79.38,6.8,7.74a13.3,13.3,0,0,1-2.54,8.33c-1.7,2.2-4.26,3.31-7.68,3.31-2.58,0-4.45-.66-5.59-2a6.74,6.74,0,0,1-1.72-4.6,7.78,7.78,0,0,1,1.4-4.72,9.15,9.15,0,0,1,4.21-3,5.27,5.27,0,0,1-3.21-1.62,5,5,0,0,1-1.06-3.36,6.83,6.83,0,0,1,1-3.79,6.16,6.16,0,0,1,3-2.35,7.11,7.11,0,0,1-3.1-3.2,11.68,11.68,0,0,1-1-5.24,13.39,13.39,0,0,1,2.09-7.65,6.14,6.14,0,0,1,5.18-3.09,4.94,4.94,0,0,1,2.64.72A6.46,6.46,0,0,1,589.43,298.48Zm-9.57,34.31a6,6,0,0,0,1.22,3.73,4.09,4.09,0,0,0,3.45,1.6A5.6,5.6,0,0,0,589,336a7.64,7.64,0,0,0,1.78-5.05,4.13,4.13,0,0,0-1.43-3.47,5.81,5.81,0,0,0-3.67-1.11,5.34,5.34,0,0,0-4.25,1.83A6.83,6.83,0,0,0,579.86,332.79Zm1.94-27.74a19.72,19.72,0,0,0,.78,6.27c.53,1.47,1.15,2.21,1.88,2.21s1.31-.63,1.68-1.9a21.73,21.73,0,0,0,.56-5.7,23.33,23.33,0,0,0-.68-6.32c-.45-1.52-1-2.29-1.74-2.29s-1.32.69-1.79,2.07A18.59,18.59,0,0,0,581.8,305.05Z" transform="translate(1673.22 -91.44)"/><path class="cls-2" d="M617.51,281.67q.63,0,2.61.18c1,.09,1.79.13,2.38.13l5.56-.25c.47,0,.71.29.71.85a.78.78,0,0,1-.64.88,2.88,2.88,0,0,0-1.91.92,7.91,7.91,0,0,0-.74,3.12q-.26,2.44-.26,11.06,0,9.9.18,15.31c.12,3.6.36,5.83.73,6.67a1.89,1.89,0,0,0,1.84,1.27c.59,0,.89.27.89.82,0,.73-.32,1.09-1,1.09l-.8,0c-2.27-.27-3.82-.4-4.65-.4a20.71,20.71,0,0,0-4,.28,6.67,6.67,0,0,1-1,.12c-.45,0-.67-.3-.67-.91s.19-.76.56-.84a2.76,2.76,0,0,0,2.07-1.49q.54-1.14.64-5.51t.11-13.54q0-9.69-.2-13a11.37,11.37,0,0,0-.66-4,2.28,2.28,0,0,0-1.76-.94c-.46-.06-.69-.39-.69-1S617.07,281.67,617.51,281.67Z" transform="translate(1673.22 -91.44)"/><path class="cls-2" d="M637.2,301.71a14.54,14.54,0,0,1,2.67-4.52,4.22,4.22,0,0,1,3.08-1.5,3.41,3.41,0,0,1,2.52,1.22,6.39,6.39,0,0,1,1.54,2.92,21.78,21.78,0,0,1,.41,4.8l-.16,12.51a13.75,13.75,0,0,0,.27,3.42,1.6,1.6,0,0,0,1.14,1.1.94.94,0,0,1,.72,1c0,.54-.23.81-.7.81s-1.28-.08-2.63-.25q-.7-.06-1.14-.06c-.27,0-1.07.11-2.39.31h-.88c-.5,0-.74-.28-.74-.84a.87.87,0,0,1,.67-.91,2,2,0,0,0,1-.72c.24-.34.4-2,.48-4.93s.12-5.89.12-8.8a32.91,32.91,0,0,0-.44-6.62c-.3-1.2-.86-1.79-1.7-1.79q-1.53,0-2.85,3.9t-1.31,12a40.14,40.14,0,0,0,.18,4.54,4.64,4.64,0,0,0,.45,1.78,2.08,2.08,0,0,0,1.11.61c.34.1.51.4.51.91s-.25.87-.75.87a5.67,5.67,0,0,1-.79-.05c-1.16-.17-1.79-.26-1.88-.26a24.69,24.69,0,0,0-4.27.31,1.7,1.7,0,0,1-.44.07c-.44,0-.67-.31-.67-.91s.2-.83.6-.91a1.65,1.65,0,0,0,1.25-.88,16.75,16.75,0,0,0,.48-4.32q.15-3.63.15-8.65a65.53,65.53,0,0,0-.27-7.93,3.17,3.17,0,0,0-1.3-2.21c-.5-.34-.74-.66-.74-1,0-.51.35-.76,1.06-.76a23.71,23.71,0,0,0,4.87-.4A29.1,29.1,0,0,1,637.2,301.71Z" transform="translate(1673.22 -91.44)"/><path class="cls-2" d="M663.78,314.41a14.43,14.43,0,0,1-.68,4.39,8.85,8.85,0,0,1-2.05,3.53,4.32,4.32,0,0,1-3.19,1.39,5.15,5.15,0,0,1-3.86-1.63c-.45-.46-.75-.69-.88-.69s-.28.18-.36.53q-.3,1.23-.69,1.23c-.16,0-.27-.1-.34-.31a21.74,21.74,0,0,1-.16-2.8c0-1.66-.06-3.62-.06-5.89,0-.88.14-1.32.43-1.32s.6.65.93,2q1.73,7.05,4.74,7a2.18,2.18,0,0,0,1.78-.94,4.33,4.33,0,0,0,.73-2.73,4.77,4.77,0,0,0-.68-2.58,13.57,13.57,0,0,0-2.59-2.72,18.41,18.41,0,0,1-4-4.32,11.53,11.53,0,0,1,.49-10.68,4.64,4.64,0,0,1,3.87-2.21,5.35,5.35,0,0,1,3.71,1.88.68.68,0,0,0,.42.25q.24,0,.36-.69c.12-.58.3-.88.53-.88s.26.1.32.28a25.93,25.93,0,0,1,.25,2.94c.11,1.76.17,3.23.17,4.4q0,1.23-.42,1.23c-.29,0-.58-.59-.89-1.76q-1.53-5.83-4.43-5.83a2,2,0,0,0-1.7.91,3.28,3.28,0,0,0-.65,1.94,4,4,0,0,0,.83,2.42,19.58,19.58,0,0,0,3.24,3,25.26,25.26,0,0,1,2.87,2.52,7.26,7.26,0,0,1,1.36,2.57A10.93,10.93,0,0,1,663.78,314.41Z" transform="translate(1673.22 -91.44)"/><path class="cls-2" d="M673.49,296.13c.74-.06,1.86-.1,3.38-.1a4,4,0,0,1,1.71.32,8.35,8.35,0,0,1-.48,2.51,34.68,34.68,0,0,1-4.61.59l-.2,13.83a40.1,40.1,0,0,0,.17,4.33,5.49,5.49,0,0,0,.79,2.32,1.83,1.83,0,0,0,1.59.94c.56,0,1.35-.51,2.37-1.54a.7.7,0,0,1,.4-.22c.23,0,.34.21.34.63a4.34,4.34,0,0,1-1.46,2.48,4.55,4.55,0,0,1-3.44,1.57,4.18,4.18,0,0,1-3.66-2c-.89-1.31-1.33-4.1-1.33-8.34q0-7,.14-14a14.55,14.55,0,0,1-2.53-.15.85.85,0,0,1-.74-.91c0-.42.28-.76.85-1a7.13,7.13,0,0,0,3-2.38,15.3,15.3,0,0,0,2.27-5.49,17.46,17.46,0,0,1,.52-1.86q.13-.33.39-.33c.35,0,.52.5.52,1.5Z" transform="translate(1673.22 -91.44)"/><path class="cls-2" d="M687.33,295.6q.07,4.38.07,15.64l0,6.75a6.23,6.23,0,0,0,.39,2.72,1.88,1.88,0,0,0,1.27.91c.68.15,1,.49,1,1s-.27.84-.8.84q-.37,0-1.32-.09a35.08,35.08,0,0,0-3.94-.22,12,12,0,0,0-2,.17,3.9,3.9,0,0,1-.81.14c-.53,0-.8-.28-.8-.84s.35-.87,1.05-1A1.7,1.7,0,0,0,683,320c.11-.93.16-2.82.16-5.66q0-5.52-.1-10.14a27.47,27.47,0,0,0-.37-5.29,1.73,1.73,0,0,0-1.41-.88c-.59-.1-.89-.4-.89-.91s.3-.79.91-.88l.38-.06Zm-.25-10.6a6.29,6.29,0,0,1-.77,3.18,2.18,2.18,0,0,1-1.84,1.33,2.16,2.16,0,0,1-1.84-1.33,7.07,7.07,0,0,1,0-6.38,2.16,2.16,0,0,1,1.84-1.32,2.19,2.19,0,0,1,1.84,1.32A6.27,6.27,0,0,1,687.08,285Z" transform="translate(1673.22 -91.44)"/><path class="cls-2" d="M699,296.13c.74-.06,1.87-.1,3.39-.1a4,4,0,0,1,1.7.32,7.67,7.67,0,0,1-.48,2.51,34.35,34.35,0,0,1-4.61.59l-.19,13.83a37.62,37.62,0,0,0,.17,4.33,5.36,5.36,0,0,0,.79,2.32,1.83,1.83,0,0,0,1.59.94c.55,0,1.34-.51,2.37-1.54a.67.67,0,0,1,.4-.22c.22,0,.34.21.34.63a4.37,4.37,0,0,1-1.47,2.48,4.53,4.53,0,0,1-3.43,1.57,4.19,4.19,0,0,1-3.67-2c-.88-1.31-1.33-4.1-1.33-8.34q0-7,.15-14a14.69,14.69,0,0,1-2.54-.15.85.85,0,0,1-.74-.91c0-.42.29-.76.85-1a7.15,7.15,0,0,0,3-2.38,15.48,15.48,0,0,0,2.27-5.49,18.59,18.59,0,0,1,.51-1.86q.13-.33.39-.33c.35,0,.52.5.52,1.5Z" transform="translate(1673.22 -91.44)"/><path class="cls-2" d="M712,296.22c0,2.16.09,5.09.09,8.81q0,8.48.09,10.84a8.61,8.61,0,0,0,.71,3.56c.42.79.89,1.19,1.42,1.19a2.62,2.62,0,0,0,1.91-1.22,8,8,0,0,0,1.43-3.2,31.58,31.58,0,0,0,.46-6.46l0-6.93a22.83,22.83,0,0,0-.18-3.64,1.11,1.11,0,0,0-1.16-.94c-.73-.06-1.09-.39-1.09-1,0-.36.09-.58.26-.68a4.07,4.07,0,0,1,1.39-.14,45.52,45.52,0,0,0,4.68-.22q.07,1.23.08,13.39c0,6.53,0,10.09.11,10.68a1.18,1.18,0,0,0,1.17,1c.42.09.63.39.63.91s-.24.91-.72.91l-.45,0a10.43,10.43,0,0,0-1.2-.06c-1.6,0-2.49,0-2.66,0l-.48,0c-.23,0-.37-.07-.43-.2a5.19,5.19,0,0,1-.08-1.21c0-1.09,0-2.19.13-3.29a13.43,13.43,0,0,1-2.64,3.95,4.16,4.16,0,0,1-2.9,1.31q-4.62,0-4.61-9V305a42.5,42.5,0,0,0-.21-5.88,1.4,1.4,0,0,0-1.1-1.08c-.53-.12-.79-.39-.79-.81s.23-.85.7-.85A35.56,35.56,0,0,0,712,296.22Z" transform="translate(1673.22 -91.44)"/><path class="cls-2" d="M733.3,296.13c.74-.06,1.87-.1,3.39-.1a4,4,0,0,1,1.7.32,7.67,7.67,0,0,1-.48,2.51,34.35,34.35,0,0,1-4.61.59l-.2,13.83a37.07,37.07,0,0,0,.18,4.33,5.36,5.36,0,0,0,.78,2.32,1.84,1.84,0,0,0,1.6.94c.55,0,1.34-.51,2.37-1.54a.68.68,0,0,1,.39-.22c.23,0,.35.21.35.63a4.37,4.37,0,0,1-1.47,2.48,4.53,4.53,0,0,1-3.43,1.57,4.19,4.19,0,0,1-3.67-2c-.89-1.31-1.33-4.1-1.33-8.34q0-7,.15-14a14.69,14.69,0,0,1-2.54-.15.85.85,0,0,1-.74-.91c0-.42.28-.76.85-1a7.07,7.07,0,0,0,3-2.38,15.12,15.12,0,0,0,2.27-5.49c.26-1,.43-1.65.52-1.86s.22-.33.39-.33c.35,0,.52.5.52,1.5Z" transform="translate(1673.22 -91.44)"/><path class="cls-2" d="M745.77,308.86c0,.61,0,1.05,0,1.32a20,20,0,0,0,1.26,7.54q1.26,3.09,3.39,3.09t4.31-3.29c.29-.44.49-.66.61-.66.32,0,.47.29.47.88a6.21,6.21,0,0,1-1.08,2.47,7.57,7.57,0,0,1-2.66,2.7,6.41,6.41,0,0,1-3.26.91q-3.69,0-5.78-3.91a19.25,19.25,0,0,1-2.09-9.2,21.74,21.74,0,0,1,2.4-10.68q2.4-4.3,6-4.31,3.36,0,5.13,3.92a18.27,18.27,0,0,1,1.76,7.46c0,.76-.11,1.21-.34,1.35a6,6,0,0,1-2.23.22Zm.11-2.29,3.09.06c1.37,0,2.2-.16,2.51-.5a3.13,3.13,0,0,0,.46-2,11.31,11.31,0,0,0-.85-4.54c-.57-1.32-1.24-2-2-2C747.21,297.57,746.14,300.57,745.88,306.57Z" transform="translate(1673.22 -91.44)"/></svg>